<svg xmlns="http://www.w3.org/2000/svg" xmlns:xlink="http://www.w3.org/1999/xlink" viewBox="0 0 1537.25 712.4"><defs><style>.cls-1{isolation:isolate;}.cls-11,.cls-2{fill:#fff;}.cls-3{fill:#373a3a;opacity:0.07;}.cls-3,.cls-5{mix-blend-mode:multiply;}.cls-4{fill:#80d5ff;}.cls-5{fill:#097189;opacity:0.17;}.cls-6{fill:#c0f2ff;}.cls-7{fill:url(#linear-gradient);}.cls-11,.cls-16,.cls-18,.cls-8{mix-blend-mode:overlay;}.cls-8{fill:url(#linear-gradient-2);}.cls-9{fill:#00395b;}.cls-10{fill:#012638;}.cls-11{opacity:0.41;}.cls-12{fill:#f76969;}.cls-13{fill:#fe2e43;}.cls-14{fill:#aaf7f7;}.cls-15{fill:#dd1431;}.cls-16{opacity:0.42;}.cls-17{fill:#f4efea;}.cls-18{opacity:0.6;fill:url(#radial-gradient);}</style><linearGradient id="linear-gradient" x1="765.6" y1="652.22" x2="765.6" y2="383.29" gradientUnits="userSpaceOnUse"><stop offset="0" stop-color="#f7e474"/><stop offset="0.22" stop-color="#f8d066"/><stop offset="0.67" stop-color="#fc9b41"/><stop offset="1" stop-color="#ff7224"/></linearGradient><linearGradient id="linear-gradient-2" x1="766.14" y1="626.23" x2="766.14" y2="207.74" gradientUnits="userSpaceOnUse"><stop offset="0" stop-color="#fff" stop-opacity="0"/><stop offset="0.09" stop-color="#fff" stop-opacity="0.03"/><stop offset="0.22" stop-color="#fff" stop-opacity="0.11"/><stop offset="0.37" stop-color="#fff" stop-opacity="0.24"/><stop offset="0.55" stop-color="#fff" stop-opacity="0.42"/><stop offset="0.75" stop-color="#fff" stop-opacity="0.66"/><stop offset="0.96" stop-color="#fff" stop-opacity="0.94"/><stop offset="1" stop-color="#fff"/></linearGradient><radialGradient id="radial-gradient" cx="36.96" cy="28.3" r="331.78" gradientTransform="translate(-1.7 0.5) scale(2.35 1.19)" gradientUnits="userSpaceOnUse"><stop offset="0" stop-color="#fff"/><stop offset="0.16" stop-color="#fff" stop-opacity="0.79"/><stop offset="0.39" stop-color="#fff" stop-opacity="0.51"/><stop offset="0.6" stop-color="#fff" stop-opacity="0.29"/><stop offset="0.78" stop-color="#fff" stop-opacity="0.13"/><stop offset="0.92" stop-color="#fff" stop-opacity="0.04"/><stop offset="1" stop-color="#fff" stop-opacity="0"/></radialGradient></defs><g class="cls-1"><g id="图层_2" data-name="图层 2"><g id="OBJECTS"><polygon class="cls-2" points="1006.25 40.38 1010.72 51.05 1026.87 54.01 1010.72 56.96 1006.25 67.63 1001.77 56.96 985.62 54.01 1001.77 51.05 1006.25 40.38"/><polygon class="cls-2" points="1337.51 41.81 1340.97 51.36 1353.45 54.01 1340.97 56.65 1337.51 66.2 1334.06 56.65 1321.57 54.01 1334.06 51.36 1337.51 41.81"/><polygon class="cls-2" points="1150.34 197.84 1152.69 204.95 1161.18 206.91 1152.69 208.88 1150.34 216 1147.99 208.88 1139.51 206.91 1147.99 204.95 1150.34 197.84"/><polygon class="cls-2" points="525.89 82.69 530.09 92.81 545.26 95.61 530.09 98.41 525.89 108.52 521.69 98.41 506.52 95.61 521.69 92.81 525.89 82.69"/><polygon class="cls-2" points="1069.57 268.1 1073.76 278.69 1088.88 281.63 1073.76 284.56 1069.57 295.15 1065.38 284.56 1050.26 281.63 1065.38 278.69 1069.57 268.1"/><polygon class="cls-2" points="507.21 263.38 510.39 272.17 521.87 274.6 510.39 277.03 507.21 285.82 504.03 277.03 492.54 274.6 504.03 272.17 507.21 263.38"/><polygon class="cls-2" points="228.23 67.03 231.26 75.54 242.2 77.9 231.26 80.26 228.23 88.77 225.21 80.26 214.27 77.9 225.21 75.54 228.23 67.03"/><path class="cls-3" d="M114.92,201.77c-7.59-34.78-53.54-63-113.66-71.32V110c65.92,9.12,114.8,42.18,114.8,81.55A47.11,47.11,0,0,1,114.92,201.77Z"/><path class="cls-3" d="M555.17,383.86c-8.82-30.14-56-53.17-112.87-53.17-25.93,0-49.76,4.8-69,12.86-15.12-10-36.68-16.84-61.14-18.66a33.76,33.76,0,0,0,.25-4c0-35-51.21-63.4-114.37-63.4-22,0-42.52,3.44-59.93,9.4-7-9.52-18.34-17.81-32.6-24.15a57.59,57.59,0,0,0,8.27-16.36c10.38,5.65,18.7,12.48,24.33,20.07,17.41-6,37.93-9.4,59.93-9.4,63.16,0,114.37,28.39,114.37,63.4a33.63,33.63,0,0,1-.25,4c24.46,1.82,46,8.69,61.14,18.66,19.2-8.05,43-12.85,69-12.85,63.16,0,114.37,28.38,114.37,63.4A35.92,35.92,0,0,1,555.17,383.86Z"/><path class="cls-3" d="M1396.58,216a49.63,49.63,0,0,0,4.85,19.63c-40.15,6-71.91,23.32-83.58,45.39-1.88-.06-3.72-.11-5.63-.11-65.25,0-118.14,29.33-118.14,65.51a40.38,40.38,0,0,0,.3,4.67c-2.24-.07-4.51-.12-6.79-.12-38.24,0-72.22,10.05-93.88,25.63-20.89-7.39-45.68-11.68-72.28-11.68-67.06,0-122.63,27.17-132.86,62.75a193.69,193.69,0,0,0-45.9-5.37c-30.78,0-58.7,6.81-79.13,17.85-17-9.95-41.1-16.14-67.8-16.14-23.19,0-44.42,4.68-60.76,12.43-16.81-16.06-45.93-27.64-80.21-30.79a36.76,36.76,0,0,0,1.9-11.53,35.76,35.76,0,0,0-1.1-8.82C589.51,388.52,618.3,400,635,416c16.34-7.75,37.57-12.43,60.76-12.43,26.7,0,50.75,6.2,67.8,16.14,20.43-11,48.35-17.84,79.13-17.84a193.7,193.7,0,0,1,45.9,5.36c10.23-35.57,65.8-62.75,132.86-62.75,26.6,0,51.39,4.29,72.28,11.68,21.66-15.58,55.64-25.62,93.88-25.62,2.28,0,4.55.05,6.79.11a40.21,40.21,0,0,1-.3-4.66c0-36.19,52.89-65.51,118.14-65.51,1.91,0,3.75.05,5.63.1C1329.06,239.38,1358.73,222.61,1396.58,216Z"/><path class="cls-3" d="M1537.25,108.52V129c-72.69,3.53-131,35-139.63,74.89a46.94,46.94,0,0,1-1.1-10.11C1396.52,149,1458.39,112.35,1537.25,108.52Z"/><path class="cls-4" d="M1537.25,128.94V688H1.26V130.44c65.92,9.13,114.8,42.18,114.8,81.55,0,10.85-3.75,21.2-10.51,30.72,14.26,6.34,25.56,14.63,32.6,24.15,17.41-6,37.93-9.4,59.93-9.4,63.16,0,114.37,28.39,114.37,63.4a33.76,33.76,0,0,1-.25,4c24.46,1.82,46,8.68,61.14,18.66,19.2-8.05,43-12.86,69-12.86,63.16,0,114.37,28.39,114.37,63.4a36.71,36.71,0,0,1-1.9,11.53c34.28,3.15,63.4,14.73,80.21,30.79,16.34-7.75,37.57-12.43,60.76-12.43,26.7,0,50.75,6.2,67.8,16.14,20.43-11,48.35-17.84,79.13-17.84a193.7,193.7,0,0,1,45.9,5.36c10.23-35.57,65.8-62.75,132.86-62.75,26.6,0,51.39,4.29,72.28,11.68,21.66-15.58,55.64-25.63,93.88-25.63,2.28,0,4.55.05,6.79.12a40.35,40.35,0,0,1-.3-4.66c0-36.19,52.89-65.51,118.14-65.51,1.91,0,3.75.05,5.63.1,11.67-22.07,43.43-39.36,83.58-45.38a50.49,50.49,0,0,1-4.91-21.44C1396.52,169.46,1458.39,132.78,1537.25,128.94Z"/><text/><path class="cls-5" d="M1013.29,186.12c0-11.15-12.71-20.41-29.43-22.27-3.69-9.34-17-16.25-32.83-16.25a50.11,50.11,0,0,0-15.35,2.34c-5.88-7.74-18.2-13.07-32.46-13.07-14.92,0-27.72,5.83-33.24,14.16a49.3,49.3,0,0,0-16.82-2.85c-16.3,0-29.91,7.32-33.13,17.06-1-.06-2.09-.1-3.15-.1-18.7,0-33.85,9.63-33.85,21.49s14.87,21.3,33.31,21.49c5.28,7.5,17.13,12.74,30.92,12.74a49.19,49.19,0,0,0,17.5-3.09c6.39,8.36,19.89,14.12,35.5,14.12,14.5,0,27.17-5,34-12.38a49,49,0,0,0,18.88,3.61c15.18,0,28-6.27,32.52-15C1001.49,205.85,1013.29,196.86,1013.29,186.12Z"/><path class="cls-6" d="M1007.29,180.28c0-11.15-12.71-20.41-29.43-22.28-3.69-9.33-17-16.24-32.83-16.24a50.11,50.11,0,0,0-15.35,2.34C923.8,136.36,911.47,131,897.22,131c-14.92,0-27.72,5.83-33.24,14.16a49.34,49.34,0,0,0-16.82-2.85c-16.3,0-29.91,7.32-33.13,17.06-1-.06-2.09-.1-3.15-.1-18.7,0-33.85,9.62-33.85,21.49s14.87,21.3,33.31,21.48c5.28,7.51,17.13,12.75,30.92,12.75a49.19,49.19,0,0,0,17.5-3.09c6.39,8.35,19.89,14.12,35.5,14.12,14.5,0,27.17-5,34-12.38a49,49,0,0,0,18.88,3.61c15.18,0,28-6.28,32.52-15C995.49,200,1007.29,191,1007.29,180.28Z"/><path class="cls-5" d="M1337.51,128.85c0-11.54-12-21.11-27.81-23-3.49-9.66-16-16.8-31-16.8a43.41,43.41,0,0,0-14.51,2.42c-5.55-8-17.2-13.53-30.67-13.53-14.1,0-26.2,6-31.41,14.65a43,43,0,0,0-15.9-3c-15.4,0-28.26,7.57-31.3,17.65-1-.06-2-.1-3-.1-17.67,0-32,9.95-32,22.23s14,22,31.48,22.22c5,7.77,16.19,13.19,29.22,13.19a42.89,42.89,0,0,0,16.54-3.2c6,8.64,18.79,14.6,33.54,14.6,13.71,0,25.68-5.14,32.15-12.8a43,43,0,0,0,17.84,3.73c14.34,0,26.49-6.49,30.73-15.47C1326.36,149.26,1337.51,140,1337.51,128.85Z"/><path class="cls-6" d="M1327.31,122.7c0-11.53-12-21.11-27.82-23-3.48-9.65-16-16.8-31-16.8a43.35,43.35,0,0,0-14.5,2.42c-5.56-8-17.21-13.53-30.68-13.53-14.09,0-26.19,6-31.41,14.65a43,43,0,0,0-15.89-3c-15.41,0-28.27,7.57-31.31,17.65-1-.06-2-.1-3-.1-17.66,0-32,10-32,22.23s14,22,31.48,22.22c5,7.77,16.18,13.19,29.21,13.19a42.89,42.89,0,0,0,16.54-3.2c6,8.64,18.79,14.6,33.55,14.6,13.7,0,25.67-5.14,32.15-12.8a42.77,42.77,0,0,0,17.84,3.73c14.34,0,26.49-6.49,30.72-15.47C1316.16,143.11,1327.31,133.81,1327.31,122.7Z"/><path class="cls-5" d="M561.84,191.42c0-18.18-18.48-33.28-42.79-36.32-5.37-15.21-24.7-26.48-47.73-26.48A65.64,65.64,0,0,0,449,132.44c-8.55-12.62-26.47-21.32-47.2-21.32-21.69,0-40.3,9.51-48.32,23.08A65,65,0,0,0,329,129.56c-23.7,0-43.48,11.93-48.16,27.82-1.51-.1-3-.16-4.59-.16-27.18,0-49.21,15.69-49.21,35,0,19.17,21.61,34.73,48.43,35,7.68,12.24,24.91,20.78,45,20.78A64.52,64.52,0,0,0,345.88,243c9.3,13.63,28.92,23,51.62,23,21.09,0,39.51-8.1,49.47-20.17a64.66,64.66,0,0,0,27.45,5.88c22.06,0,40.76-10.23,47.28-24.39C544.69,223.59,561.84,208.93,561.84,191.42Z"/><path class="cls-6" d="M549.07,183c0-18.18-18.48-33.28-42.8-36.31-5.36-15.22-24.69-26.48-47.73-26.48A65.64,65.64,0,0,0,436.22,124c-8.55-12.62-26.47-21.32-47.2-21.32-21.69,0-40.3,9.52-48.32,23.09a64.84,64.84,0,0,0-24.47-4.64c-23.7,0-43.48,11.93-48.16,27.81-1.51-.1-3-.16-4.59-.16-27.18,0-49.21,15.69-49.21,35,0,19.16,21.62,34.72,48.44,35,7.67,12.24,24.9,20.78,45,20.78a64.61,64.61,0,0,0,25.45-5c9.29,13.62,28.91,23,51.61,23,21.09,0,39.51-8.11,49.47-20.18a64.66,64.66,0,0,0,27.45,5.88c22.06,0,40.76-10.23,47.28-24.38C531.91,215.19,549.07,200.54,549.07,183Z"/><path class="cls-3" d="M1069.34,470.24a58.34,58.34,0,0,0,8,18.12c-21.72,7-38.83,18.38-48,32.16a194.09,194.09,0,0,0-57.08-8.3c-57,0-105,22.94-119.37,54.14a181.93,181.93,0,0,0-104.27-.08c-12.22-32-60.36-55.9-118-55.9a196.57,196.57,0,0,0-40.83,4.19,111.5,111.5,0,0,0-29.21-9.65c-7.93-44.72-71.61-79.59-149-79.59-4.46,0-8.82.15-13.18.37-12.44-20.44-45.4-35.06-84.11-35.06a145,145,0,0,0-27.86,2.66c-14-15.41-41.45-25.88-73-25.88A136.53,136.53,0,0,0,192.35,369c-18.19-38.31-77.41-66.42-147.7-66.42A251.42,251.42,0,0,0,0,306.56v-21a251.42,251.42,0,0,1,44.64-3.94c70.29,0,129.51,28.11,147.7,66.42a136.53,136.53,0,0,1,21.17-1.62c31.54,0,59,10.47,73,25.88a145,145,0,0,1,27.86-2.67c38.71,0,71.67,14.62,84.11,35.07,4.36-.22,8.72-.37,13.18-.37,77.35,0,141,34.87,149,79.59a111.5,111.5,0,0,1,29.21,9.65,196.56,196.56,0,0,1,40.83-4.2c57.6,0,105.74,23.9,118,55.91a181.93,181.93,0,0,1,104.27.08c14.34-31.2,62.33-54.14,119.37-54.14a194.09,194.09,0,0,1,57.08,8.3C1037.33,487.49,1051.43,477.26,1069.34,470.24Z"/><path class="cls-3" d="M1536,274.6v21c-64.27,1.94-118.33,26.87-139.31,61.22-6.42-.64-13-1-19.79-1-39.66,0-74.71,11.72-95.94,29.62-21-7.32-45.4-11.51-71.48-11.51-72.22,0-131.82,32.1-140.54,73.61a49.16,49.16,0,0,1-1.11-10.44c0-46.49,63.41-84.17,141.65-84.17,26.08,0,50.5,4.2,71.48,11.52,21.23-17.9,56.28-29.62,95.94-29.62,6.76,0,13.37.36,19.79,1C1417.67,301.47,1471.73,276.54,1536,274.6Z"/><path class="cls-6" d="M1396.69,356.82a196.59,196.59,0,0,0-19.78-1c-39.66,0-74.7,11.71-95.93,29.62-21-7.31-45.42-11.52-71.51-11.52-78.22,0-141.64,37.68-141.64,84.16,0,10.69,3.38,20.89,9.49,30.29-21.72,7-38.82,18.39-48,32.17a193.73,193.73,0,0,0-57.09-8.3c-57,0-105,22.93-119.35,54.12a182.16,182.16,0,0,0-104.27-.06c-12.23-32-60.38-55.92-118-55.92a196.86,196.86,0,0,0-40.82,4.2,111,111,0,0,0-29.24-9.64c-7.93-44.73-71.59-79.59-149-79.59-4.43,0-8.81.14-13.15.36-12.45-20.45-45.41-35.06-84.12-35.06a145.77,145.77,0,0,0-27.86,2.66c-14-15.41-41.46-25.88-73-25.88A138,138,0,0,0,192.34,369c-18.18-38.32-77.4-66.41-147.7-66.41A251.78,251.78,0,0,0,0,306.56V712.4H1536V295.6C1471.72,297.53,1417.67,322.46,1396.69,356.82Z"/><polygon class="cls-7" points="843.27 696.77 782.55 356.66 749.21 356.62 687.93 696.77 843.27 696.77"/><polygon class="cls-8" points="800.86 697.11 773.11 356.65 758.21 356.61 731.41 697.11 800.86 697.11"/><path class="cls-9" d="M723.11,245.91s-97.85,12.62-35.46,161.26c1.06,2.54,5,3.39,7.49,1.62h0c9.65-6.81,14.22-17.17,12.14-27.38-4.3-21-5.87-56.47,29.47-64.76Z"/><path class="cls-10" d="M736.74,316.64c-11.43,2.69-19,8.22-23.86,15.18-13.92-22.59-19.16-47.77-18.87-73a67.21,67.21,0,0,1,29.11-12.91Z"/><path class="cls-10" d="M818.7,331.3c-4.87-6.71-12.34-12-23.49-14.66l13.64-70.73a67,67,0,0,1,28.41,12.39C837.62,283.5,832.49,308.69,818.7,331.3Z"/><path class="cls-10" d="M723.12,245.91l13.62,70.73c-11.43,2.69-19,8.22-23.86,15.18-13.92-22.59-19.16-47.77-18.87-73A67.21,67.21,0,0,1,723.12,245.91Z"/><path class="cls-11" d="M723.11,245.91s-97.85,12.62-35.46,161.26a4.25,4.25,0,0,0,2.84,2.31l.36-.28c-52.47-140.31,23.77-153.1,23.77-153.1l8.76-8.81Z"/><path class="cls-9" d="M808.84,245.91s97.85,12.62,35.47,161.26c-1.07,2.54-5,3.39-7.5,1.62h0c-9.65-6.81-14.22-17.17-12.13-27.38,4.29-21,5.86-56.47-29.47-64.76Z"/><path class="cls-10" d="M818.7,331.3c-4.87-6.71-12.34-12-23.49-14.66l13.64-70.73a67,67,0,0,1,28.41,12.39C837.62,283.5,832.49,308.69,818.7,331.3Z"/><polygon class="cls-9" points="739.7 342.63 738.08 343.16 748.98 356.61 782.31 356.61 793.21 343.16 791.59 342.63 739.7 342.63"/><path class="cls-12" d="M805.18,163.92a239.74,239.74,0,0,0-16-28.12c-2.48-3.71-12.72-19.3-23.09-19.31-10.72,0-21.58,15.67-24.21,19.62a241.19,241.19,0,0,0-15.8,27.81c-24.47,50.28-42.88,128.17,12,179.24h27.55v0h27.55C848.07,292.09,829.66,214.2,805.18,163.92Z"/><path class="cls-13" d="M805.18,163.92a239.74,239.74,0,0,0-16-28.12c-2.48-3.71-12.72-19.3-23.09-19.31-10.72,0-21.58,15.67-24.21,19.62a241.19,241.19,0,0,0-15.8,27.81c-24.47,50.28-42.88,128.17,12,179.24h27.55v0h27.55C848.07,292.09,829.66,214.2,805.18,163.92Z"/><ellipse class="cls-9" cx="765.64" cy="211.23" rx="29.8" ry="24.06"/><ellipse class="cls-14" cx="765.64" cy="211.23" rx="21.77" ry="17.58"/><ellipse class="cls-2" cx="758.66" cy="206.16" rx="7.33" ry="5.92"/><path class="cls-2" d="M775.29,216c0,2-2.06,3.72-4.61,3.72s-4.61-1.67-4.61-3.72,2.07-3.72,4.61-3.72S775.29,214,775.29,216Z"/><path class="cls-15" d="M737.88,343l.2.2h27.55v0h27.55c54.88-51.07,36.47-129,12-179.24a239.74,239.74,0,0,0-16-28.12c-2.48-3.71-12.72-19.3-23.09-19.31C766.09,116.49,871.16,284.17,737.88,343Z"/><path class="cls-9" d="M801.9,157.43a231.44,231.44,0,0,0-12.72-21.63c-2.48-3.71-12.72-19.3-23.09-19.31-10.72,0-21.58,15.67-24.21,19.62a230.54,230.54,0,0,0-12.52,21.32Z"/><path class="cls-10" d="M801.9,157.43a231.44,231.44,0,0,0-12.72-21.63c-2.48-3.71-12.72-19.3-23.09-19.31a300.29,300.29,0,0,1,20.4,40.94Z"/><g class="cls-16"><path class="cls-2" d="M730.53,163.92a242.68,242.68,0,0,1,15.8-27.81c2.45-3.67,12-17.47,21.94-19.39a10.69,10.69,0,0,0-2.18-.23c-10.72,0-21.58,15.67-24.21,19.62a241.19,241.19,0,0,0-15.8,27.81c-24.47,50.28-42.88,128.17,12,179.24h4.45C687.66,292.09,706.06,214.2,730.53,163.92Z"/><polygon class="cls-2" points="770.09 343.16 770.1 343.16 770.09 343.12 770.09 343.16"/></g><path class="cls-9" d="M760.3,272.37c-7.16,0-12.82,3.94-12.33,8.59l11.22,107.4c.34,2.43,4.11,11,7.25,11s6.92-8.54,7.26-11L784.92,281c.49-4.65-5.18-8.59-12.33-8.59Z"/><path class="cls-11" d="M761.53,390.25,750.3,282.84c-.48-4.64,5.18-8.58,12.34-8.58h12.28a16.47,16.47,0,0,1,8.35,2.11c-2.14-2.38-6.1-4-10.68-4H760.3c-7.16,0-12.82,3.94-12.33,8.59l11.22,107.4c.32,2.27,3.63,9.88,6.63,10.86A24.65,24.65,0,0,1,761.53,390.25Z"/><path class="cls-2" d="M702.3,259.79H829a158.77,158.77,0,0,0-.73-18.11H703A158.77,158.77,0,0,0,702.3,259.79Z"/><path class="cls-17" d="M829,259.79c0-1.47,0-2.94,0-4.41,0-.11,0-.21,0-.32q0-4.35-.35-8.72l0-.37c-.1-1.43-.21-2.86-.35-4.29H805.42a133.62,133.62,0,0,1-1.22,18.11Z"/><path class="cls-3" d="M1537.25,480.38v14.88c-6.39-.48-12.91-.76-19.51-.76a255.32,255.32,0,0,0-36.47,2.62c-24.6-28.31-73.63-47.63-130.16-47.63-71.6,0-131.26,31-144.32,72.09-18.31-6.88-39.9-10.88-63.06-10.88-66.08,0-119.66,32.44-119.66,72.45,0,1.27.06,2.51.16,3.76-4.73-.35-9.53-.56-14.41-.56-32.47,0-61.78,8.15-82.7,21.23-19-7.93-42.12-12.58-67-12.58-52.07,0-96.27,20.39-112.09,48.7a127.14,127.14,0,0,0-33.4-4.35,130.09,130.09,0,0,0-27.18,2.82c-9.65-21.35-41.87-37-80.21-37a132.84,132.84,0,0,0-20.86,1.6c-6.82-28.65-47.49-50.67-96.68-50.67-28.87,0-54.83,7.59-72.71,19.64-19.88-11.64-46.29-19.17-75.63-20.4.06-.82.12-1.64.12-2.48,0-45.4-60.82-82.23-135.84-82.23-37.91,0-72.19,9.43-96.83,24.61-22.09-8.78-48.48-13.9-76.86-13.9a228.75,228.75,0,0,0-30.72,2.07V468.5A228.75,228.75,0,0,1,32,466.43c28.38,0,54.77,5.12,76.86,13.9,24.64-15.18,58.92-24.42,96.83-24.61C344.17,455,356,540.57,356,541.39c29.33,1.23,41.76,5,61,19.44,17.88-12.05,43.84-19.64,72.71-19.64,49.19,0,89.86,22,96.68,50.67a132.84,132.84,0,0,1,20.86-1.6c38.34,0,70.56,15.68,80.21,37a130.09,130.09,0,0,1,27.18-2.82,127.14,127.14,0,0,1,33.4,4.35c15.82-28.31,60-48.7,112.09-48.7,24.85,0,47.92,4.65,67,12.58,20.92-13.08,53.59-23,84.31-19.88-14.47-28.76,66.22-77,132.3-77,23.16,0,36.27,2.84,54.57,9.72,13.06-41.05,81.21-70.44,152.81-70.93,76.31-.52,110.87,18.7,130.16,47.63C1493,480.55,1530.86,479.9,1537.25,480.38Z"/><path class="cls-2" d="M1537.25,495.27c-6.4-.48-12.91-.76-19.52-.76a253.59,253.59,0,0,0-36.45,2.62c-24.6-28.32-73.64-47.64-130.15-47.64-71.64,0-131.27,31-144.33,72.1-18.31-6.9-39.92-10.89-63.08-10.89-66.08,0-119.65,32.44-119.65,72.45,0,1.26,0,2.51.16,3.76-4.73-.36-9.54-.56-14.42-.56-32.46,0-61.77,8.14-82.69,21.23-19-7.93-42.1-12.57-67-12.57-52.09,0-96.29,20.38-112.11,48.69a127,127,0,0,0-33.4-4.36,129.21,129.21,0,0,0-27.16,2.84c-9.65-21.35-41.9-37-80.22-37a135.61,135.61,0,0,0-20.87,1.6c-6.8-28.65-47.48-50.66-96.67-50.66-28.88,0-54.82,7.59-72.71,19.65-19.86-11.65-46.3-19.19-75.62-20.41,0-.82.1-1.64.1-2.47,0-45.42-60.81-82.24-135.82-82.24-37.92,0-72.2,9.43-96.84,24.6C86.76,486.43,60.36,481.31,32,481.31a228.87,228.87,0,0,0-30.72,2.07V709.84h1536Z"/><path class="cls-18" d="M1.26,437.87a1438.23,1438.23,0,0,0,203.4,14.22C618,452.09,953,281.88,953,71.91A203,203,0,0,0,939.58,0H1.26Z"/></g></g></g></svg>