<svg xmlns="http://www.w3.org/2000/svg" xmlns:xlink="http://www.w3.org/1999/xlink" viewBox="0 0 1206 502"><defs><style>.cls-1{fill:none;}.cls-2{fill:#cc9463;}.cls-3{fill:#ac764a;opacity:0.55;}.cls-4{clip-path:url(#clip-path);}</style><clipPath id="clip-path" transform="translate(118)"><rect class="cls-1" y="5" width="1038" height="497"/></clipPath></defs><g id="图层_2" data-name="图层 2"><g id="图层_1-2" data-name="图层 1"><rect class="cls-2" x="118" width="1038" height="502"/><path class="cls-3" d="M767,30c4,0-44.43,6-98,6s-97-2-97-4.5S615.43,27,669,27,764.51,30,767,30Z" transform="translate(118)"/><path class="cls-3" d="M414,26.5C414,29,370.57,31,317,31s-97-2-97-4.5S263.43,20,317,20,414,24,414,26.5Z" transform="translate(118)"/><path class="cls-3" d="M812,479c0,2.48-43.52,8-97.08,7S618,482.25,618,479.76s43.5-3.72,97.06-2.76S812,476.52,812,479Z" transform="translate(118)"/><path class="cls-3" d="M545,351c0,1.75-61.39-5.7-134.55-7S278,345.75,278,344s59.4-7.67,132.57-6.36S545,349.25,545,351Z" transform="translate(118)"/><path class="cls-3" d="M143,190c0,2.49-26.19,1-58.5,1S26,185.49,26,183s26.19-1,58.5-1S143,187.51,143,190Z" transform="translate(118)"/><path class="cls-3" d="M527,134c0,2.49-43.43,2-97,2s-109,3.49-109,1,55.43-10,109-10S527,131.51,527,134Z" transform="translate(118)"/><path class="cls-3" d="M293,468c0,2.49-43.43,9-97,9s-94-7.51-94-10,40.43,1,94,1S293,465.51,293,468Z" transform="translate(118)"/><ellipse class="cls-3" cx="912" cy="107" rx="35" ry="2"/><ellipse class="cls-3" cx="899" cy="272" rx="35" ry="2"/><path class="cls-3" d="M1012,47c0,1.1-15.67,2-35,2s-35-.9-35-2,15.67,0,35,0S1012,45.9,1012,47Z" transform="translate(118)"/><g class="cls-4"><path class="cls-3" d="M76,306c0,2.49-43.43-1-97-1s-97-2-97-4.5,43.43-4.5,97-4.5S76,303.51,76,306Z" transform="translate(118)"/><path class="cls-3" d="M1088,450.5c0,2.49-43.43,4.5-97,4.5s-66-1.51-66-4,12.43-5,66-5S1088,448,1088,450.5Z" transform="translate(118)"/></g></g></g></svg>