<svg xmlns="http://www.w3.org/2000/svg" viewBox="0 0 266.3 280.4"><defs><style>.cls-1{fill:#d02125;}.cls-2{fill:#9f0611;}.cls-3{fill:#ffae00;}.cls-4{fill:#c38200;}.cls-5{fill:#540c0c;}</style></defs><g id="图层_2" data-name="图层 2"><g id="object"><path class="cls-1" d="M237.32,140.27V113.64S12.36,107,0,140.27Z"/><path class="cls-2" d="M237.32,140.12v26.63S12.36,173.39,0,140.13Z"/><path class="cls-3" d="M227.14,140.27h10.18V113.64s-3.71-.11-10.18-.23Z"/><path class="cls-4" d="M227.14,167c6.47-.12,10.18-.23,10.18-.23V140.12H227.14Z"/><path class="cls-4" d="M266.3,140.3c-.48-3.81-10.29-8-13-9.32-3.21-1.63-10.26-5-12.36-.18a26.59,26.59,0,0,0-.48,9.5Z"/><path class="cls-3" d="M266.3,140.3c-.48-3.81-10.29-8-13-9.32-3.21-1.63-10.26-5-12.36-.18a26.59,26.59,0,0,0-.48,9.5Z"/><path class="cls-4" d="M266.3,140.1c-.48,3.81-10.29,8-13,9.31-3.21,1.63-10.26,5-12.35.19a26.31,26.31,0,0,1-.49-9.5Z"/><path class="cls-5" d="M133.54,159.39a19.19,19.19,0,1,1,19.19-19.19A19.19,19.19,0,0,1,133.54,159.39Z"/><polygon class="cls-3" points="247.11 134.13 242.41 57.76 257.29 57.76 252.59 134.13 247.11 134.13"/><polygon class="cls-4" points="247.11 145.09 242.41 222.63 257.29 222.63 252.59 145.09 247.11 145.09"/><path class="cls-3" d="M152.73,280.4A11.75,11.75,0,0,1,141,268.65V11.75A11.75,11.75,0,0,1,152.73,0h28.2a11.75,11.75,0,0,1,11.74,11.75v256.9a11.75,11.75,0,0,1-11.74,11.75Z"/><rect class="cls-2" x="140.98" y="215.78" width="18.8" height="45.43"/><rect class="cls-1" x="140.98" y="19.19" width="18.8" height="45.43"/><path class="cls-4" d="M32,198a10,10,0,0,1-10-10V92.46a10,10,0,0,1,10-10h20.7a10,10,0,0,1,10,10v95.48a10,10,0,0,1-10,10Z"/><rect class="cls-3" x="21.93" y="133.15" width="40.73" height="14.1"/></g></g></svg>