<svg xmlns="http://www.w3.org/2000/svg" viewBox="0 0 196.6 217.59"><defs><style>.cls-1{fill:#fff;}.cls-2{fill:#3b4532;}.cls-3{fill:#fda948;}.cls-4{fill:#fcc7ac;}.cls-5{fill:#8b8b5e;}.cls-6{fill:#ff8661;}.cls-7{fill:#421018;}</style></defs><g id="图层_2" data-name="图层 2"><g id="OBJECTS"><path class="cls-1" d="M6,217.59a6,6,0,0,1-6-6v-114C0,71.27,10.81,46.54,30.43,28,49.17,10.19,74.34,0,99.48,0A94,94,0,0,1,134.9,6.91a97.37,97.37,0,0,1,29.8,18.88c18.44,17.13,28.29,39.79,31,71.31,1.26,14.71.92,29.81.59,44.41-.14,6.41-.29,13-.29,19.36v50.72a6,6,0,0,1-6,6Z"/><path class="cls-2" d="M190.48,98.79v114H6.48v-114a92.61,92.61,0,0,1,21.8-59.44l.42-.5c1.28-1.49,2.61-2.94,4-4.33a88.73,88.73,0,0,1,7.94-7.21c.86-.69,1.73-1.37,2.61-2a92.69,92.69,0,0,1,9.25-6.08c2.23-1.29,4.52-2.49,6.86-3.58A92,92,0,0,1,96.19,6.83c.26,0,.51,0,.77,0,.51,0,1,0,1.52,0a92.55,92.55,0,0,1,21.39,2.5c.94.23,1.87.46,2.79.72,1.5.4,3,.84,4.44,1.33l1.07.35c1.49.51,3,1.05,4.4,1.64a91.92,91.92,0,0,1,33.84,24.25c1.08,1.22,2.14,2.47,3.16,3.74q2.49,3.1,4.72,6.41c.8,1.18,1.58,2.37,2.31,3.59A94.5,94.5,0,0,1,183.16,64h0q1.14,2.64,2.11,5.36h0a89.24,89.24,0,0,1,4.81,21c0,.45.08.89.11,1.34s.06.83.09,1.26V93c0,.18,0,.37,0,.55a4.89,4.89,0,0,1,0,.54c0,.18,0,.35,0,.53a1.62,1.62,0,0,1,0,.22c0,.1,0,.2,0,.31s0,.48,0,.72v.08a.14.14,0,0,1,0,.09,3.38,3.38,0,0,1,0,.45.06.06,0,0,1,0,0c0,.2,0,.39,0,.59s0,.54,0,.81S190.48,98.49,190.48,98.79Z"/><path class="cls-3" d="M61.73,179.27l-.11-.26-.13-.32-.13-.33-.63-1.53-.25-.63-.77-1.87-.13-.33h0l-.13-.31-.42-1-.25-.62-1.05-2.59h0l-.15-.39,0,0-.25-.62-.92-2.24-.25-.62-.26-.65-.13-.32h0l-.13-.32-.31-.77-.26-.62-.89-2.19-.09-.2-.17-.42-.06-.15-1-2.38-.26-.62-1.28-3.14-.25-.62-1-2.59-.13-.31-.13-.3v0l-.07-.17a.41.41,0,0,0,0-.09.28.28,0,0,0-.14-.1h-.08a.23.23,0,0,0-.18,0l-.08,0-.16.07-.59.29-1.18.56-.6.28L44,152l-.16.07s0,0,0,0l-.44.2h0l-.29.14-3.49,1.67-.61.29-1,.46-.31.15-.12.05-.3.15-2.16,1-.61.29-2.64,1.25-.49.24-.09,0-.51.25-3.19,1.52-.6.29-.67.31-.31.15h0l-.3.14-2.1,1-.62.29-2.17,1-.31.15-.32.15-.16.08a.34.34,0,0,0-.17.42l0,0,.12.31.13.32.66,1.66.25.62.45,1.13.12.31v0l.13.31.23.59.24.62,1.08,2.71.07.17.17.45.07.18,1,2.44.26.62.64,1.63.12.31h0l.13.32.33.83.24.62.9,2.26.25.62.21.53.13.32h0l.13.34.63,1.57.24.63.85,2.13.21.51h0l.24.63.89,2.25h0l.12.31,0,.08a.12.12,0,0,0,.05.07.25.25,0,0,0,.13.12h.08a.17.17,0,0,0,.1,0h.08l.08,0,.2-.09.32-.13,2.52-1.09.6-.25,1-.43.61-.26,1.7-.72.32-.14,0,0,.31-.14,1.13-.48.62-.27,2.06-.88.32-.14h0l.32-.14.22-.09.62-.26,3.22-1.39.23-.1h0l.38-.16.12-.05.31-.13,3-1.28.62-.25h0l.13-.05.32-.14.24-.11.32-.14,2.58-1.1.61-.26.41-.17.32-.14.31-.13.68-.29.6-.26L61,180l.31-.13.29-.12h0A.32.32,0,0,0,61.73,179.27Zm-2.92.87-.6.26-1.73.74-.6.26-2.67,1.14-.32.14h0l-.32.14-.28.12-.61.26-3.17,1.35-.25.11-.22.1-.39.16-3.23,1.39-.62.26-3,1.28-.62.26-3.49,1.5-.61.27-4,1.71h0l-.32.14-.05-.13,0-.08-.86-2.17-.25-.63-1.05-2.65-.26-.63-1.09-2.77-.25-.63L27,179.82l-.24-.62-1.22-3.07-.25-.62-1-2.62-.25-.62-1.08-2.74-.25-.62-.93-2.32-.24-.62-.81-2.05,2.65-1.27.61-.29,3.47-1.65.6-.29h0l3.11-1.49.61-.29,3.14-1.49.6-.29,2.31-1.1h0l.38-.19L39.3,155l.61-.29,3.53-1.69.26-.12,0,0,.31-.14.25-.12,2.56-1.22.6-.29,1.65-.79.09,0,.06.14,1.21,3,.25.62L52,157.15l.26.62,1,2.53.26.62.89,2.2.26.61.85,2.1.25.61.9,2.22.26.63,1.23,3,.24.62,1.43,3.51.26.62.89,2.18Z"/><path class="cls-3" d="M37,190.21l-.61.27-.31-.6c-.43-.83-.84-1.66-1.25-2.5-.11-.2-.21-.4-.31-.6-.43-.85-.85-1.7-1.27-2.56-.1-.2-.2-.4-.29-.6-.45-.9-.87-1.79-1.31-2.68-.1-.2-.19-.41-.29-.61-.34-.69-.67-1.39-1-2.08l-.28-.6c-.46-1-.9-1.91-1.34-2.86-.1-.2-.19-.41-.28-.61-.4-.84-.78-1.68-1.17-2.53-.09-.2-.18-.4-.27-.62-.43-.93-.86-1.87-1.27-2.81-.09-.21-.18-.41-.26-.61q-.5-1.08-1-2.16l-.27-.62h0l-.93-2.17c-.09-.21-.17-.41-.26-.61l.61-.29c.08.2.17.4.26.61.31.74.63,1.47.95,2.2.08.21.18.42.27.62.31.71.62,1.43.94,2.14l.27.62,1.28,2.84c.08.2.18.4.27.61.39.84.77,1.69,1.17,2.52.09.21.18.41.28.6.43,1,.87,1.9,1.32,2.85h0l.27.6,1,2.07c.1.2.2.41.29.61.43.89.86,1.79,1.31,2.68l.28.6c.43.86.85,1.72,1.28,2.57l.3.61,1.27,2.51C36.77,189.82,36.87,190,37,190.21Z"/><path class="cls-3" d="M41.1,188.45l-.62.26-.31-.59c-.46-.87-.91-1.73-1.34-2.6-.1-.21-.21-.41-.31-.61-.42-.87-.85-1.74-1.26-2.62-.1-.2-.19-.4-.29-.62-.42-.9-.84-1.81-1.25-2.72-.09-.2-.19-.4-.27-.61-.31-.68-.62-1.36-.91-2-.09-.2-.19-.4-.28-.61-.37-.85-.74-1.71-1.12-2.56l-.07-.16-.27-.62c-.36-.82-.73-1.66-1.11-2.49a6.65,6.65,0,0,0-.27-.61c-.43-1-.87-1.95-1.32-2.93l-.27-.6c-.32-.69-.63-1.39-1-2.07-.09-.2-.19-.4-.28-.61s-.14-.27-.2-.41c-.33-.68-.64-1.32-1-1.92a6.53,6.53,0,0,0-.35-.56l.6-.29a6.53,6.53,0,0,1,.35.56h0c.34.62.66,1.26,1,1.92l.21.45c.09.19.19.39.28.6q.49,1,1,2.07l.29.6L32,169c.1.2.19.41.27.61.38.84.74,1.67,1.11,2.49l.27.6a1,1,0,0,0,.06.16c.38.85.75,1.7,1.12,2.55l.27.61c.3.68.6,1.36.91,2l.27.61q.61,1.38,1.26,2.73c.09.21.19.41.28.61.42.88.84,1.75,1.27,2.63l.3.61c.44.87.89,1.75,1.36,2.61C40.89,188.06,41,188.26,41.1,188.45Z"/><path class="cls-3" d="M44.67,186.92l-.61.26c-.1-.2-.19-.4-.29-.61-.41-.9-.83-1.8-1.25-2.7l-.28-.61c-.43-.91-.84-1.8-1.26-2.71-.1-.2-.19-.41-.28-.61-.43-.92-.85-1.83-1.27-2.75-.1-.2-.19-.41-.29-.61-.3-.67-.61-1.32-.91-2L38,174c-.4-.86-.8-1.73-1.19-2.59l-.27-.6-1.11-2.43c-.1-.21-.2-.41-.28-.61h0l-1.32-2.94c-.1-.2-.19-.4-.28-.61-.32-.7-.64-1.4-1-2.11-.1-.19-.19-.4-.28-.6-.39-.86-.77-1.71-1.16-2.56-.09-.21-.18-.4-.27-.6l.6-.29.28.6c.38.86.77,1.72,1.16,2.59.09.2.18.39.27.6l1,2.14c.1.2.19.4.28.61l1.34,2.91c.09.21.18.41.28.61l1.1,2.43c.09.19.18.4.28.6.38.85.78,1.71,1.17,2.57.09.2.18.39.27.6.31.67.62,1.32.92,2,.09.21.18.4.28.6.42.92.84,1.84,1.27,2.76h0c.09.2.18.41.28.61L42.85,183c.09.21.19.42.28.62l1.26,2.7Z"/><path class="cls-3" d="M48.52,185.27l-.62.27-.27-.61-1.22-2.7h0c-.09-.2-.18-.41-.28-.62-.43-.94-.85-1.88-1.29-2.83l-.28-.61c-.42-.93-.84-1.86-1.27-2.79-.1-.2-.19-.4-.28-.6-.3-.66-.6-1.33-.91-2l-.27-.61h0c-.38-.82-.76-1.64-1.13-2.46l-.28-.6c-.37-.79-.73-1.58-1.09-2.37-.09-.2-.19-.4-.28-.61-.45-.95-.88-1.91-1.33-2.86l-.28-.6c-.34-.75-.7-1.5-1-2.26-.1-.2-.19-.4-.28-.6h0c-.41-.91-.83-1.8-1.25-2.7-.1-.2-.19-.4-.28-.6l.6-.29.29.6,1.26,2.71c.09.21.19.41.28.61l1.06,2.28c.1.2.18.4.28.6.44.95.88,1.89,1.32,2.85.09.2.19.4.28.61.36.78.72,1.57,1.09,2.35.09.21.18.4.27.6.37.81.75,1.62,1.12,2.44.09.2.18.4.28.6l.91,2c.09.2.18.41.28.61l1.27,2.79h0l.27.61c.44.94.87,1.9,1.3,2.85.1.2.19.41.28.62.41.89.82,1.79,1.22,2.68Z"/><path class="cls-3" d="M52.53,183.56l-.61.25c-.08-.2-.17-.4-.26-.61-.37-.87-.75-1.75-1.14-2.63-.08-.2-.18-.41-.27-.62-.43-1-.86-2-1.3-3l-.28-.62c-.4-1-.82-1.89-1.24-2.84-.09-.21-.17-.41-.26-.61-.3-.67-.6-1.35-.89-2-.09-.2-.18-.41-.26-.61-.35-.78-.69-1.55-1-2.33l-.27-.61-1-2.31-.27-.61-1.22-2.76c-.1-.21-.19-.41-.27-.61l-1.11-2.51-.27-.61c-.42-1-.85-1.91-1.27-2.85l-.27-.61.6-.29.28.61c.42.95.85,1.91,1.27,2.88l.27.61,1.13,2.54.27.6c.4.91.8,1.84,1.21,2.75l.26.6,1,2.31.28.61c.33.77.67,1.54,1,2.31.09.2.17.41.27.61l.88,2,.27.6c.42.95.84,1.91,1.25,2.86l.27.61,1.31,3h0l.26.62c.38.87.76,1.74,1.13,2.62A6.57,6.57,0,0,1,52.53,183.56Z"/><polygon class="cls-3" points="56.74 181.75 56.13 182.02 55.88 181.41 54.81 178.93 54.55 178.32 53.18 175.11 52.91 174.5 51.67 171.58 51.41 170.97 50.52 168.88 50.25 168.27 49.3 166.06 49.05 165.44 48.09 163.21 47.83 162.59 46.69 159.94 46.43 159.33 45.24 156.53 44.98 155.92 43.7 152.94 43.44 152.32 44.03 152.03 44.3 152.65 45.58 155.65 45.84 156.26 47.05 159.09 47.31 159.7 48.44 162.33 48.7 162.95 49.65 165.18 49.91 165.79 50.86 167.99 51.11 168.6 51.12 168.6 52.01 170.7 52.02 170.7 52.27 171.32 53.52 174.24 53.79 174.85 55.17 178.09 55.44 178.7 56.48 181.14 56.74 181.75"/><path class="cls-3" d="M59.06,180.77l-.61.25-.24-.61c-.32-.79-.64-1.58-1-2.37-.08-.21-.17-.41-.25-.62l-1.35-3.37-.24-.62c-.4-1-.78-2-1.18-3-.08-.21-.16-.41-.24-.63-.29-.72-.57-1.44-.86-2.17l-.24-.61c-.28-.73-.57-1.45-.85-2.18-.08-.2-.16-.4-.24-.62L50.94,162c-.09-.21-.17-.41-.25-.62-.34-.87-.67-1.74-1-2.61h0l-.24-.63c-.39-1-.78-2-1.15-3-.1-.21-.17-.42-.25-.63-.4-1-.8-2.07-1.19-3.1l-.24-.63.6-.29c.08.2.16.42.25.63l1.19,3.12c.08.2.15.41.24.62.38,1,.78,2,1.17,3,.09.22.17.42.24.63h0c.32.86.67,1.73,1,2.59l.24.62.87,2.23c.08.2.16.42.23.62h0c.28.72.57,1.44.84,2.16.09.2.17.41.24.61q.45,1.1.87,2.19l.24.62c.4,1,.79,2,1.18,3,.08.2.16.41.26.62.44,1.13.9,2.26,1.34,3.4.09.21.17.41.25.62.32.77.63,1.55.93,2.32Z"/><path class="cls-3" d="M51.32,153.76l-.6.28-1.83.84-.6.28-2.45,1.1-.6.27c-1.26.58-2.52,1.14-3.79,1.71l-.61.26L37,160.18l-.61.26-3.24,1.4-.6.26-3.07,1.29-.62.26c-1.24.52-2.48,1-3.72,1.54l-.62.26-2.81,1.14-.61.25-.25-.62.61-.25c.93-.37,1.86-.75,2.78-1.14h0c.21-.08.42-.16.62-.26,1.24-.49,2.47-1,3.71-1.53l.62-.25,3.07-1.29.61-.26,3.22-1.39h0c.2-.08.41-.17.61-.27,1.29-.55,2.57-1.11,3.85-1.68l.61-.26c1.27-.56,2.54-1.13,3.8-1.71l.6-.27c.82-.36,1.64-.73,2.46-1.12.2-.08.41-.17.61-.27l1.81-.84c.21-.09.41-.18.6-.28Z"/><path class="cls-3" d="M52.85,157.52l-.61.25c-.64.27-1.28.53-1.93.78h0l-.61.24h0l-2.36.91-.63.24-3.84,1.44-.63.24-.07,0-3.81,1.42-.63.24c-1.11.42-2.22.85-3.32,1.29l-.61.23-1,.41-2,.83-.63.26c-1.25.53-2.5,1.07-3.75,1.63l-.61.27c-1,.42-1.91.86-2.86,1.31l-.61.28L22,169.2a6.54,6.54,0,0,1,.6-.28c.94-.45,1.89-.89,2.84-1.31l.6-.28c1.25-.55,2.5-1.09,3.75-1.61l.61-.26c.69-.29,1.38-.58,2.07-.85l1-.4.61-.23c1.1-.44,2.21-.86,3.32-1.28l.63-.24L41.92,161h0c.21-.08.41-.16.63-.23l3.85-1.45.62-.24c.8-.3,1.6-.61,2.39-.93a6.62,6.62,0,0,0,.62-.24c.64-.24,1.29-.5,1.93-.77l.61-.25Z"/><path class="cls-3" d="M54.14,160.67l-.62.25c-.65.29-1.31.56-2,.84l-.61.26L48.7,163l-.61.25-3.77,1.53-.61.26-.77.31-3,1.22-.62.25L36,168.11l-.62.26-3.08,1.24-.62.25L27.9,171.4l-.62.25-3.06,1.25-.62.24-.25-.62.62-.25L27,171l.62-.24,3.79-1.54L32,169l3.06-1.24h0l.62-.26L39,166.16l.62-.25,3-1.21.8-.32.62-.25,3.76-1.54.62-.26,2.25-.93.62-.26,2-.83c.2-.09.41-.17.61-.27Z"/><path class="cls-3" d="M55.28,163.47l-.61.27-2,.87h0l-.6.26-2.14.92-.61.27-3.69,1.59-.62.26-3.69,1.56c-.2.1-.41.18-.61.27l-3.3,1.4-.62.26-3.08,1.3-.62.27-3.72,1.55-.62.27-3.22,1.34-.62.26-.25-.62.62-.26,3.19-1.33.62-.26,3.73-1.57.62-.25,3.08-1.3.61-.26,3.3-1.4.62-.27,3.69-1.57.61-.26,3.72-1.6.6-.26,2.16-.93.61-.26,2-.87.61-.27Z"/><polygon class="cls-3" points="56.38 166.16 55.78 166.44 53.74 167.38 53.14 167.66 51.12 168.6 51.11 168.6 50.52 168.88 46.89 170.57 46.28 170.85 42.7 172.51 42.09 172.79 38.84 174.31 38.23 174.59 35.14 176.02 34.54 176.3 30.95 177.97 30.35 178.25 26.97 179.82 26.36 180.1 26.11 179.48 26.72 179.2 30.07 177.65 30.67 177.37 30.68 177.37 34.26 175.69 34.87 175.41 37.96 173.99 38.56 173.71 41.82 172.19 41.82 172.19 42.42 171.91 46.02 170.24 46.62 169.96 50.25 168.27 50.86 167.99 52.91 167.05 53.5 166.77 55.52 165.83 56.13 165.55 56.38 166.16"/><path class="cls-3" d="M57.55,169l-.61.26c-.7.29-1.39.59-2.09.9l-.61.27-2,.86c-.2.09-.39.18-.6.26L48,173.21l-.61.28c-1.18.53-2.36,1.06-3.54,1.62l-.61.27L40,176.9l-.6.29c-1,.48-2.08,1-3.11,1.47l-.6.29c-1.17.56-2.33,1.12-3.49,1.7-.21.09-.4.19-.6.29-1.18.57-2.36,1.15-3.53,1.74l-.59.3-.25-.62.6-.31,3.48-1.72c.2-.1.39-.2.6-.29l3.51-1.7.6-.29c1-.49,2.06-1,3.09-1.47.21-.1.41-.2.61-.28L43,174.78l.61-.28c1.18-.56,2.37-1.09,3.56-1.62a6.46,6.46,0,0,1,.6-.27c1.21-.56,2.42-1.11,3.64-1.64l.6-.27h0l2-.87.61-.26,2.07-.91.61-.25Z"/><path class="cls-3" d="M59,172.66l-.62.26c-.72.28-1.42.58-2.12.88l-.63.25-1.87.8-.61.26-3.62,1.57A6.65,6.65,0,0,0,49,177q-1.77.77-3.51,1.56l-.61.27c-1.08.49-2.16,1-3.24,1.49-.21.08-.41.18-.61.28L37.86,182l-.6.29c-1.15.53-2.3,1.09-3.44,1.64l-.59.29c-1.27.61-2.52,1.23-3.77,1.86-.21.09-.4.19-.6.3l-.25-.63.59-.3c1.24-.61,2.49-1.23,3.74-1.83l.6-.29L37,181.67l.61-.28,3.12-1.45.6-.28h0c1.08-.51,2.16-1,3.24-1.49l.61-.27h0c1.17-.53,2.33-1.06,3.5-1.57l.62-.26,3.62-1.57.62-.26c.62-.28,1.25-.54,1.89-.81l.61-.25,2.13-.89.62-.25Z"/><path class="cls-3" d="M60.73,176.83c-.22.06-.42.14-.64.21l-2.21.78c-.2.06-.42.15-.62.22-.61.22-1.22.43-1.82.66l-.63.23c-1.23.45-2.45.92-3.67,1.4a6.62,6.62,0,0,0-.62.24c-1.17.45-2.34.92-3.5,1.41l-.61.25h0c-1.09.45-2.19.91-3.27,1.38l-.61.26c-1,.45-2.06.9-3.09,1.37l-.6.28c-1.15.51-2.29,1-3.43,1.59l-.59.27q-2,1-4.05,2c-.21.09-.41.2-.6.3l-.25-.63.6-.3q2-1,4-1.95l.6-.28q1.69-.81,3.42-1.59l.61-.28,3.11-1.37.61-.27,3.27-1.38.62-.25c1.16-.48,2.34-1,3.51-1.41l.62-.24h0c1.22-.48,2.44-1,3.67-1.39.21-.08.42-.17.62-.23.62-.24,1.23-.45,1.84-.67.21-.08.41-.16.62-.22.74-.26,1.47-.53,2.21-.78l.63-.22Z"/><path class="cls-3" d="M20.56,163.61a.33.33,0,0,1-.33-.33,8.34,8.34,0,0,0-.42-2.15c-.06-.2-.11-.41-.17-.61a5.44,5.44,0,0,1-.08-3.06,2.47,2.47,0,0,1,2.58-1.73,3.1,3.1,0,0,1,1.49.87,11.09,11.09,0,0,1,1.43,1.71,11.4,11.4,0,0,1-.14-1.31,3.54,3.54,0,0,1,.29-1.83A2.34,2.34,0,0,1,26.69,154a3.4,3.4,0,0,1,2.6.37A5.46,5.46,0,0,1,30.93,156l-.06-.2-.16-.58a5.23,5.23,0,0,1-.08-2.92,2.38,2.38,0,0,1,2.43-1.72,3.07,3.07,0,0,1,1.31.59,12.94,12.94,0,0,1,2.82,2.66,8.59,8.59,0,0,1,.36-4.36,2.3,2.3,0,0,1,1.06-1.29,2.43,2.43,0,0,1,2.58.57A8.29,8.29,0,0,1,43,150.94a6.79,6.79,0,0,1,.5-3.32,2.52,2.52,0,0,1,.74-1,2.55,2.55,0,0,1,3.16.34A6.86,6.86,0,0,1,49,149.65a.34.34,0,0,1-.63.24,6.24,6.24,0,0,0-1.4-2.43,1.63,1.63,0,0,0-2.84.43,7.14,7.14,0,0,0,0,5,.34.34,0,0,1-.19.41.33.33,0,0,1-.42-.16,11.78,11.78,0,0,0-2.69-3.78c-.25-.21-1.14-.85-1.87-.5a1.69,1.69,0,0,0-.73.95,9.33,9.33,0,0,0,0,5.59.33.33,0,0,1-.61.26A12.2,12.2,0,0,0,34,151.76a2.51,2.51,0,0,0-1-.48,1.75,1.75,0,0,0-1.71,1.27,4.63,4.63,0,0,0,.1,2.54l.15.57a8.64,8.64,0,0,1,.42,2.21.33.33,0,0,1-.25.34.36.36,0,0,1-.38-.17A7.3,7.3,0,0,0,28.94,155a2.76,2.76,0,0,0-2.08-.3,1.67,1.67,0,0,0-1.06.81,3.05,3.05,0,0,0-.22,1.49,10.28,10.28,0,0,0,.83,3.57.34.34,0,0,1-.6.3,16,16,0,0,0-2.64-3.76,2.41,2.41,0,0,0-1.15-.69,1.83,1.83,0,0,0-1.83,1.29,4.82,4.82,0,0,0,.1,2.67c.05.2.11.4.16.6a9.44,9.44,0,0,1,.45,2.32.34.34,0,0,1-.33.34Z"/><path class="cls-3" d="M29.91,192.87a1.81,1.81,0,0,1-1-.28,2,2,0,0,1-.78-2.18,2.42,2.42,0,0,1,.37-.82,2.69,2.69,0,0,1-1.61-.1,2.6,2.6,0,0,1-1.21-3.2,4.71,4.71,0,0,1,.74-1.38,3.93,3.93,0,0,1-1.31.14,3.07,3.07,0,0,1-2.62-1.83,3.38,3.38,0,0,1,.63-3.18,4.28,4.28,0,0,1,.49-.55h-.1a2.93,2.93,0,0,1-2.32-1.1,3.16,3.16,0,0,1-.13-3.31,4.25,4.25,0,0,1,.43-.67l-.26.05a2.54,2.54,0,0,1-2.66-1.06,2.77,2.77,0,0,1,.17-2.6,6.36,6.36,0,0,1,.71-1.11,6.18,6.18,0,0,1-1.42.16,2.85,2.85,0,0,1-2.36-.94,2.28,2.28,0,0,1-.1-2.43,4.16,4.16,0,0,1,1.73-1.63,8.07,8.07,0,0,1,3-1,.32.32,0,0,1,.37.29.33.33,0,0,1-.29.37,7.35,7.35,0,0,0-2.73.91,3.57,3.57,0,0,0-1.47,1.36,1.63,1.63,0,0,0,0,1.72,2.34,2.34,0,0,0,1.83.67h0a5.74,5.74,0,0,0,2.51-.58,7.29,7.29,0,0,1,1.12-.71.33.33,0,0,1,.43.12.34.34,0,0,1-.07.44,6.28,6.28,0,0,1-1.12.72,5.7,5.7,0,0,0-1.57,1.92,2.27,2.27,0,0,0-.19,2,1.9,1.9,0,0,0,2,.73,6.4,6.4,0,0,0,2.26-1.09.34.34,0,0,1,.37.56,6.16,6.16,0,0,0-2.09,2.1,2.55,2.55,0,0,0,.07,2.61,2.27,2.27,0,0,0,1.82.83,2.76,2.76,0,0,0,1.29-.34l.71-.48a.32.32,0,0,1,.45.08.33.33,0,0,1,0,.45,4.3,4.3,0,0,1-.78.53,7,7,0,0,0-1.52,1.39,2.71,2.71,0,0,0-.54,2.53,2.36,2.36,0,0,0,2.05,1.4,3.75,3.75,0,0,0,2.57-.87.33.33,0,0,1,.45,0,.34.34,0,0,1,0,.46,6.48,6.48,0,0,0-1.86,2.48,2,2,0,0,0,.84,2.39,3.22,3.22,0,0,0,2.37-.35.35.35,0,0,1,.42.14.34.34,0,0,1-.08.43,2.82,2.82,0,0,0-1.08,1.47,1.36,1.36,0,0,0,.48,1.46c.68.43,1.66,0,2.44-.44a.33.33,0,0,1,.32.58A4.64,4.64,0,0,1,29.91,192.87Z"/><path class="cls-3" d="M34,194.84A2.25,2.25,0,0,1,32.4,194a5.39,5.39,0,0,1-1-2.1.34.34,0,0,1,.66-.19,5,5,0,0,0,.82,1.85,1.36,1.36,0,0,0,1.49.49,1.39,1.39,0,0,0,.66-1.19,4.9,4.9,0,0,0-.29-1.67.34.34,0,0,1,.62-.27c.78,1.29,1.5,1.85,2.2,1.73a1.64,1.64,0,0,0,1.13-1.31,5.69,5.69,0,0,0-.1-2.13.34.34,0,0,1,.23-.38.35.35,0,0,1,.42.17A6.5,6.5,0,0,0,40.57,191a1.9,1.9,0,0,0,1.88.52,2,2,0,0,0,1.07-1.74,6.93,6.93,0,0,0-.41-2.4.34.34,0,0,1,.63-.24,4.57,4.57,0,0,0,1.59,2,2.06,2.06,0,0,0,2.18.11,2.33,2.33,0,0,0,.89-1.88A7.69,7.69,0,0,0,48,185a.35.35,0,0,1,.17-.39.34.34,0,0,1,.41.07,6.84,6.84,0,0,1,.76,1c.4.61.79,1.2,1.38,1.36.8.21,1.62-.52,1.88-1.35a6.14,6.14,0,0,0-.08-3,.34.34,0,0,1,.63-.24,6.39,6.39,0,0,0,1.66,2.12,1.77,1.77,0,0,0,2.16.06c.75-.7.45-2.1.16-3.1a.36.36,0,0,1,.2-.41.34.34,0,0,1,.42.14,14.39,14.39,0,0,0,1.12,1.61c.35.43,1,1.12,1.65.93s.83-1.06.8-1.85a7.66,7.66,0,0,0-.41-2.12.33.33,0,0,1,.2-.43.35.35,0,0,1,.44.2,8.37,8.37,0,0,1,.45,2.32c0,1-.27,2.24-1.28,2.54-.76.22-1.58-.18-2.38-1.16l-.22-.29a2.55,2.55,0,0,1-.68,2.12,2.45,2.45,0,0,1-3,0,4.43,4.43,0,0,1-1-1,4.61,4.61,0,0,1-.16,1.69,2.41,2.41,0,0,1-2.72,1.81A2.81,2.81,0,0,1,49,186.41a4.15,4.15,0,0,1,0,.93,3,3,0,0,1-1.2,2.42,2.74,2.74,0,0,1-2.91-.1,4,4,0,0,1-.79-.66,4.39,4.39,0,0,1,0,.81,2.62,2.62,0,0,1-1.5,2.32,2.55,2.55,0,0,1-2.59-.64,4.34,4.34,0,0,1-.63-.73,5,5,0,0,1-.08.76,2.3,2.3,0,0,1-1.68,1.83,2.26,2.26,0,0,1-2-.79,2.28,2.28,0,0,1,0,.37,2.05,2.05,0,0,1-1,1.77A1.54,1.54,0,0,1,34,194.84Z"/><path class="cls-3" d="M61.26,179.16a.34.34,0,0,1-.15-.65,7.41,7.41,0,0,0,2.42-2,3.23,3.23,0,0,0,.72-1.42,1.5,1.5,0,0,0-.35-1.34,2.12,2.12,0,0,0-2-.2c-.27.09-.54.2-.81.31a6,6,0,0,1-1.54.5.37.37,0,0,1-.38-.25.34.34,0,0,1,.2-.4,8.21,8.21,0,0,0,3.9-3.58c.16-.29.5-1,.17-1.46-.22-.28-.68-.37-1.4-.28A16.37,16.37,0,0,0,58,169.48a.34.34,0,0,1-.3-.61c1.45-.86,2.7-1.66,3.25-3a1.72,1.72,0,0,0,0-1.66c-.52-.69-1.69-.53-2.35-.36A12.79,12.79,0,0,0,55.71,165a.34.34,0,0,1-.31-.61,9.47,9.47,0,0,0,3.23-2.84,3.21,3.21,0,0,0,.63-1.4,1.16,1.16,0,0,0-.5-1.14,1.8,1.8,0,0,0-1.33,0,12,12,0,0,0-3.19,1.41.34.34,0,0,1-.46-.09.35.35,0,0,1,.08-.47,16,16,0,0,0,3.49-3.53,2.48,2.48,0,0,0,.62-1.6,1.59,1.59,0,0,0-1.33-1.23,3.56,3.56,0,0,0-2.09.41c-.31.14-.6.3-.9.47s-.8.44-1.23.62a.34.34,0,0,1-.42-.14.34.34,0,0,1,.07-.44l2.67-2.19A3.21,3.21,0,0,0,56,150.64a1.81,1.81,0,0,0-1.12-1.91,3.1,3.1,0,0,0-2.51.16,9.92,9.92,0,0,0-2.27,1.6.35.35,0,0,1-.48,0,.34.34,0,0,1,0-.48,10.64,10.64,0,0,1,2.42-1.7,3.82,3.82,0,0,1,3.07-.17,2.49,2.49,0,0,1,1.52,2.69,3.84,3.84,0,0,1-1.51,2l-.37.3a3.73,3.73,0,0,1,2-.23,2.26,2.26,0,0,1,1.89,1.82,3,3,0,0,1-.74,2.07,16.9,16.9,0,0,1-1.63,1.94c.32-.11.64-.22,1-.31a2.4,2.4,0,0,1,1.84,0,1.81,1.81,0,0,1,.84,1.82,3.68,3.68,0,0,1-.75,1.71,9.24,9.24,0,0,1-1.26,1.46l.51-.14c1.41-.35,2.5-.13,3.06.62a2.34,2.34,0,0,1,.11,2.34,5.12,5.12,0,0,1-1.47,1.88,16.92,16.92,0,0,1,1.86-.35,2.21,2.21,0,0,1,2,.53,2,2,0,0,1-.11,2.21A8.94,8.94,0,0,1,62,172.82a2.47,2.47,0,0,1,2.33.44,2.16,2.16,0,0,1,.55,2,3.89,3.89,0,0,1-.85,1.72,8.13,8.13,0,0,1-2.65,2.19A.29.29,0,0,1,61.26,179.16Z"/><path class="cls-3" d="M31.13,197.78a2.38,2.38,0,1,1-2.49-2.27A2.38,2.38,0,0,1,31.13,197.78Z"/><path class="cls-3" d="M26.24,205.93a1.87,1.87,0,1,1-2-1.78A1.87,1.87,0,0,1,26.24,205.93Z"/><path class="cls-3" d="M29.55,197.16a.2.2,0,0,1-.1,0,.26.26,0,0,1-.13-.33l1.93-4.43a.25.25,0,0,1,.33-.13.26.26,0,0,1,.13.33L29.78,197A.24.24,0,0,1,29.55,197.16Z"/><path class="cls-3" d="M24.14,206.3a.24.24,0,0,1-.12,0,.25.25,0,0,1-.1-.34c1.6-2.86,3.18-5.77,4.7-8.66a.26.26,0,0,1,.34-.1.24.24,0,0,1,.1.34c-1.52,2.89-3.1,5.81-4.7,8.66A.26.26,0,0,1,24.14,206.3Z"/><path class="cls-3" d="M24.42,205.34l-.2.57c-.21.6-.43,1.19-.66,1.78q-1,2.59-2.14,5.1h-5.8A61.36,61.36,0,0,0,22.76,207C23.33,206.44,23.88,205.89,24.42,205.34Z"/><path class="cls-4" d="M61.11,119.34a1.78,1.78,0,0,0-1.33-1,2.29,2.29,0,0,0-1.83.48,10.6,10.6,0,0,0-2.87,4.37c-3.39,8-5.5,23.16-5.93,26.45,0,.32-.07.52-.08.6a.32.32,0,0,0,0,.16.32.32,0,0,0,.13.1s0,0,0,0l.06,0a.26.26,0,0,0,.22-.13l0,0,.2-.37.05-.08a182,182,0,0,0,9.51-20.26C61,125.08,62,121.13,61.11,119.34ZM59,129.14a182.45,182.45,0,0,1-9.21,19.76c.59-4.29,2.61-17.79,5.63-25.19a10.8,10.8,0,0,1,2.86-4.54,2,2,0,0,1,1.15-.42,1.53,1.53,0,0,1,.3,0,1.3,1.3,0,0,1,1,.78C61.42,121.19,60.53,124.87,59,129.14Z"/><path class="cls-3" d="M151.19,146.71a.26.26,0,0,1-.22-.13l0,0a.3.3,0,0,1-.07.15.33.33,0,0,1-.38.1l-1.06,2.59-.25.62.6.28.25-.62,1.21-3Zm29.23,13-.16-.08-.32-.15-.31-.15-2.17-1-.62-.29-2.1-1-.3-.14h0l-.3-.14-.67-.32-.6-.29-3.19-1.52-.51-.25-.09,0-.49-.24-2.64-1.25-.6-.29-2.17-1-.3-.15-.12-.06-.3-.14-1-.46-.61-.29-3.49-1.67-.29-.14h0l-.44-.21-.16-.08L153.89,147l-.59-.29-1.19-.56-.59-.28-.15-.07-.09,0a.29.29,0,0,0-.18,0l-.08,0a.26.26,0,0,0-.13.1.24.24,0,0,0-.06.09l-.07.16v0l-.25.61-1.06,2.59-.25.62-1.28,3.14-.26.62-1,2.38-.06.15-.17.42-.09.2-.89,2.19-.25.62-.32.78-.13.31v0l-.13.31-.27.65-.25.62-.92,2.24-.25.62,0,0-.15.39h0l-1.05,2.58-.25.62-.42,1-.13.31h0l-.13.33-.77,1.86-.25.63-.63,1.55-.13.31-.13.32-.11.26a.32.32,0,0,0,.16.42h0l.29.12.31.14,1.89.81.6.25.68.29.32.14.31.13.41.18.61.26,2.58,1.1.32.14.24.11.32.13.13.06h0l.61.26,3,1.27.32.14.12.05.38.16h0l.23.1,3.22,1.38.62.27.22.09.32.14h0l.32.14,2.07.88.61.27,1.12.48.32.14,0,0,.32.14,1.7.72.61.26,1,.43.6.25,2.52,1.08.32.14.2.09.08,0h.26a.53.53,0,0,0,.14-.12h0a.16.16,0,0,0,0-.07l0-.08.12-.31.9-2.25.25-.62h0l.2-.51.85-2.14.25-.63.63-1.55.13-.34v0l.13-.32.21-.53.25-.63.9-2.25.24-.63.33-.83.12-.32h0l.13-.32.63-1.62.26-.62,1-2.44.07-.18.18-.45.07-.18,1.07-2.7.24-.62.23-.59.13-.32v0l.12-.31.45-1.12.25-.62.66-1.67.13-.31.13-.33v0A.33.33,0,0,0,180.42,159.71Zm-1.38,2.5-.24.63-.93,2.32-.24.61-1.09,2.75-.25.62-1,2.61-.25.63-1.21,3.06-.25.63-.89,2.23-.25.63-1.09,2.77-.26.63L170,185l-.25.63-.86,2.17,0,.08-.05.12-.32-.14h0l-4-1.72-.62-.26-3.49-1.5-.62-.26-3-1.28-.62-.27-3.23-1.38-.38-.16-.23-.1-.25-.11-3.17-1.35-.61-.26-.28-.12-.32-.14h0l-.32-.14-2.67-1.14-.6-.26-1.73-.74-.6-.26-2.18-.93.89-2.17.26-.63,1.43-3.5.24-.62,1.23-3,.26-.62.9-2.23.26-.61.85-2.09.25-.61.89-2.21.26-.61,1-2.53.25-.63,1.27-3.11.25-.62,1.21-3,.06-.15.09,0,1.65.79.61.29,2.55,1.22.25.12.31.15,0,0,.26.12L160.6,151l.61.29,1.15.55.37.18h0l2.31,1.1.6.28,3.14,1.5.61.29,3.11,1.48h0l.6.29,3.47,1.66.61.29,2.65,1.27Z"/><path class="cls-3" d="M163.53,186.46l.61.26.3-.59c.43-.83.85-1.67,1.26-2.5q.17-.3.3-.6c.43-.85.86-1.7,1.28-2.56.1-.2.2-.4.29-.61l1.31-2.67c.09-.21.19-.41.28-.61.34-.69.67-1.39,1-2.08l.28-.6,1.34-2.87c.1-.2.19-.4.28-.6.39-.84.78-1.69,1.16-2.53l.27-.62c.44-.94.86-1.88,1.28-2.82.09-.2.18-.4.26-.61l1-2.16c.09-.2.18-.4.26-.62h0c.31-.72.63-1.45.93-2.18l.27-.61-.62-.29c-.08.21-.16.41-.25.61-.32.74-.63,1.47-1,2.21-.08.2-.17.42-.26.62-.32.71-.63,1.43-1,2.14-.08.21-.17.41-.26.61-.43.95-.85,1.9-1.29,2.84-.08.21-.18.41-.27.61-.38.85-.77,1.7-1.16,2.53-.09.2-.18.41-.28.6l-1.32,2.85h0c-.09.2-.18.4-.28.59-.33.7-.66,1.39-1,2.08-.1.2-.2.4-.29.61L167,179.57c-.09.21-.19.41-.29.61-.42.86-.84,1.72-1.27,2.57l-.3.6c-.42.84-.85,1.68-1.28,2.51Z"/><path class="cls-3" d="M159.4,184.69l.62.27c.11-.2.22-.39.32-.6.45-.86.9-1.72,1.34-2.6.1-.2.21-.4.3-.6.43-.87.85-1.74,1.26-2.62.1-.21.2-.41.29-.62.43-.9.84-1.82,1.25-2.72.09-.2.19-.41.27-.61.31-.69.62-1.36.92-2l.27-.61c.38-.85.75-1.71,1.12-2.57,0-.05,0-.11.08-.16.08-.2.17-.4.26-.61.36-.82.73-1.66,1.11-2.5l.28-.61c.42-1,.86-1.94,1.31-2.92l.27-.6c.32-.7.64-1.39,1-2.07l.28-.61c.07-.13.14-.28.2-.41.33-.69.64-1.33,1-1.92.12-.19.23-.39.35-.57l-.6-.29c-.12.19-.24.38-.35.57h0c-.35.61-.67,1.26-1,1.92-.08.15-.14.29-.22.45s-.19.39-.28.59l-1,2.07-.28.61q-.67,1.47-1.32,2.94a6.65,6.65,0,0,0-.27.61l-1.1,2.49-.27.6a1.11,1.11,0,0,1-.07.16c-.37.85-.74,1.7-1.12,2.55l-.27.61c-.3.68-.6,1.36-.91,2l-.27.61q-.62,1.38-1.26,2.73l-.28.61c-.41.88-.84,1.75-1.26,2.63-.1.2-.2.4-.31.6-.43.88-.89,1.76-1.35,2.62C159.62,184.3,159.51,184.5,159.4,184.69Z"/><path class="cls-3" d="M155.83,183.17l.62.26c.1-.2.19-.4.28-.61.42-.9.84-1.81,1.26-2.7.1-.21.19-.41.28-.62.43-.9.84-1.8,1.26-2.7.09-.2.19-.41.28-.62.43-.91.85-1.82,1.27-2.74.09-.21.18-.41.28-.61.31-.67.61-1.33.92-2l.27-.61c.39-.86.79-1.72,1.19-2.58.09-.2.18-.41.27-.6l1.11-2.44c.09-.2.19-.4.27-.61h0c.45-1,.89-1.95,1.32-2.93.1-.2.19-.41.29-.61.32-.7.64-1.4,1-2.11.1-.2.19-.4.28-.6.38-.86.77-1.71,1.15-2.57.1-.2.18-.39.28-.6l-.6-.29c-.09.2-.18.4-.28.6-.38.87-.78,1.73-1.16,2.59l-.27.6c-.33.71-.65,1.43-1,2.14l-.28.61c-.44,1-.88,1.95-1.33,2.92-.09.2-.18.41-.28.61l-1.1,2.43c-.09.19-.18.39-.28.59-.39.86-.79,1.72-1.18,2.57l-.27.61c-.31.66-.61,1.32-.92,2-.09.2-.18.4-.28.6l-1.26,2.75h0c-.09.21-.18.42-.28.62l-1.26,2.72c-.09.2-.19.41-.28.62-.42.9-.84,1.8-1.27,2.7Z"/><path class="cls-3" d="M152,181.52l.62.26.27-.61c.41-.89.81-1.79,1.22-2.69h0l.27-.62,1.29-2.83c.09-.21.19-.41.28-.61.43-.93.85-1.86,1.27-2.79.1-.2.19-.41.28-.6.31-.66.6-1.33.91-2,.09-.2.19-.39.27-.6h0l1.12-2.46c.1-.2.19-.39.28-.6.37-.78.73-1.58,1.1-2.36.09-.21.19-.41.28-.61l1.32-2.86c.09-.21.19-.41.28-.6l1.05-2.26c.09-.2.19-.4.27-.6h0c.41-.9.83-1.8,1.25-2.69.1-.2.19-.41.29-.6l-.61-.29c-.1.19-.19.4-.29.6-.42.9-.84,1.81-1.25,2.71-.1.2-.19.4-.29.61-.35.76-.71,1.52-1.05,2.28-.1.2-.19.4-.28.6-.44.94-.89,1.89-1.32,2.84-.09.21-.19.41-.28.61l-1.1,2.36-.27.6-1.12,2.43c-.09.21-.18.41-.28.61-.3.66-.6,1.33-.91,2l-.28.61c-.42.93-.84,1.86-1.27,2.79h0l-.27.61c-.43.94-.87,1.9-1.29,2.85-.1.2-.19.41-.28.61-.41.9-.82,1.79-1.22,2.69C152.17,181.11,152.08,181.32,152,181.52Z"/><path class="cls-3" d="M148,179.81l.61.25.27-.61c.37-.88.75-1.75,1.14-2.63.08-.2.17-.42.26-.62.43-1,.87-2,1.31-3l.27-.62c.41-1,.82-1.9,1.24-2.85.09-.2.17-.4.26-.61.3-.67.6-1.34.89-2,.09-.21.18-.41.26-.61.35-.78.69-1.55,1-2.33l.27-.61,1-2.32.27-.61c.4-.92.81-1.83,1.21-2.76a6.65,6.65,0,0,0,.27-.61c.38-.84.74-1.67,1.12-2.5l.27-.61c.42-1,.84-1.91,1.27-2.86l.27-.61-.61-.29-.27.61c-.43,1-.85,1.92-1.27,2.88l-.27.61L157.93,157l-.27.6c-.41.92-.81,1.84-1.21,2.76l-.26.6-1,2.3-.27.61-1,2.32c-.09.2-.17.4-.27.61-.29.68-.59,1.35-.88,2l-.27.61c-.42.95-.83,1.91-1.24,2.86l-.27.61c-.45,1-.88,2-1.31,3h0c-.08.21-.18.42-.27.62l-1.13,2.63C148.14,179.4,148.05,179.6,148,179.81Z"/><polygon class="cls-3" points="143.76 178 144.37 178.26 144.63 177.65 145.69 175.18 145.96 174.56 147.33 171.36 147.59 170.75 148.83 167.83 149.09 167.22 149.99 165.13 150.25 164.52 151.2 162.3 151.46 161.69 152.42 159.45 152.68 158.83 153.81 156.19 154.07 155.57 155.26 152.78 155.53 152.17 156.81 149.18 157.07 148.56 156.47 148.28 156.21 148.9 154.93 151.9 154.66 152.51 153.45 155.34 153.19 155.95 152.07 158.58 151.8 159.2 150.85 161.43 150.59 162.04 149.64 164.24 149.39 164.85 149.38 164.85 148.49 166.95 148.49 166.94 148.23 167.56 146.98 170.48 146.72 171.09 145.33 174.34 145.07 174.95 144.03 177.39 143.76 178"/><path class="cls-3" d="M141.45,177l.6.26c.08-.21.16-.41.25-.62.32-.78.63-1.57.95-2.36l.24-.63,1.35-3.36c.08-.2.16-.41.25-.62l1.17-3a5.7,5.7,0,0,0,.24-.62c.3-.72.58-1.45.86-2.17.08-.21.17-.41.24-.62.29-.72.57-1.44.85-2.17.08-.2.17-.41.25-.62.29-.74.58-1.48.87-2.24l.25-.62c.33-.87.66-1.73,1-2.6h0l.23-.63c.39-1,.78-2,1.16-3,.09-.22.16-.42.25-.63.4-1,.79-2.07,1.18-3.1.08-.22.17-.42.24-.63l-.6-.29c-.08.2-.15.42-.25.63-.39,1-.78,2.07-1.18,3.11-.09.21-.16.41-.25.63-.38,1-.78,2-1.17,3-.08.22-.16.42-.24.63h0c-.32.87-.66,1.74-1,2.6-.08.2-.16.42-.23.62l-.87,2.23c-.08.2-.17.41-.24.62h0c-.28.71-.56,1.44-.84,2.16l-.24.61c-.29.73-.58,1.46-.86,2.19l-.25.62c-.39,1-.79,2-1.18,3-.08.21-.16.42-.25.63-.44,1.13-.9,2.26-1.34,3.4-.1.21-.18.41-.26.62l-.93,2.32C141.6,176.6,141.52,176.81,141.45,177Z"/><path class="cls-3" d="M149.19,150l.6.28,1.82.85.61.28,2.44,1.1.6.27c1.26.58,2.53,1.14,3.8,1.7l.61.27c1.27.57,2.55,1.13,3.83,1.68l.62.26c1.07.47,2.16.94,3.24,1.39.2.09.4.19.6.27,1,.43,2,.87,3.06,1.28l.62.27c1.24.52,2.48,1,3.73,1.54l.62.25,2.81,1.15.61.24.24-.62-.61-.24c-.93-.37-1.85-.75-2.78-1.14h0a5.36,5.36,0,0,1-.62-.25c-1.23-.49-2.47-1-3.71-1.53l-.62-.25c-1-.43-2-.87-3.06-1.29l-.61-.27-3.23-1.39h0l-.6-.27c-1.29-.55-2.57-1.11-3.85-1.68-.21-.08-.41-.18-.61-.27-1.27-.56-2.54-1.12-3.8-1.7l-.6-.27c-.83-.36-1.65-.73-2.46-1.12l-.61-.28c-.61-.27-1.22-.55-1.82-.84a4.66,4.66,0,0,1-.6-.28Z"/><path class="cls-3" d="M147.65,153.76c.2.1.41.18.61.26.65.27,1.29.52,1.93.77h0l.62.24h0l2.36.91.62.23c1.29.49,2.57,1,3.85,1.44a6.62,6.62,0,0,0,.62.24l.08,0,3.81,1.42.62.24,3.32,1.28.61.24,1,.41,2,.83.62.26c1.26.53,2.5,1.07,3.76,1.62l.61.27c.95.43,1.91.87,2.85,1.32l.61.28.24-.62-.6-.27c-1-.46-1.89-.89-2.84-1.32l-.61-.27c-1.24-.55-2.5-1.09-3.75-1.61l-.61-.27q-1-.44-2.07-.84l-1-.4-.62-.24L163.07,159c-.2-.09-.41-.16-.62-.24l-3.86-1.44,0,0-.62-.23c-1.28-.47-2.57-1-3.85-1.45l-.63-.23-2.39-.93-.62-.24-1.92-.77-.62-.26Z"/><path class="cls-3" d="M146.37,156.91l.61.26,2,.84.61.25,2.23.94.62.25c1.25.51,2.51,1,3.77,1.53l.61.25.76.32,3,1.21.62.26,3.31,1.34.62.25,3.07,1.25.62.24,3.79,1.54.62.26,3.06,1.24.63.25.24-.62-.61-.25-3-1.24-.62-.25-3.78-1.54-.63-.24L165.4,164h0l-.61-.25-3.31-1.34-.62-.26-3-1.2-.8-.33-.62-.24-3.77-1.55-.61-.25c-.75-.3-1.51-.62-2.25-.94l-.63-.25-2-.84-.61-.26Z"/><path class="cls-3" d="M145.22,159.72l.61.26,2,.88h0l.6.26,2.14.92.61.26,3.7,1.59.61.27,3.69,1.56c.21.1.41.18.61.26,1.11.48,2.21.94,3.31,1.4.21.1.41.19.62.27l3.08,1.3.62.26,3.72,1.56.62.26,3.22,1.35.61.25.26-.62-.62-.25-3.19-1.33-.62-.26-3.74-1.57-.61-.25-3.08-1.3-.61-.26c-1.11-.47-2.21-.93-3.31-1.41l-.62-.26-3.69-1.57c-.2-.09-.41-.17-.61-.27l-3.72-1.59-.6-.26-2.15-.93-.61-.26-2-.87-.61-.27Z"/><polygon class="cls-3" points="144.13 162.41 144.73 162.69 146.76 163.63 147.36 163.91 149.38 164.85 149.39 164.85 149.99 165.13 153.61 166.82 154.22 167.1 157.8 168.76 158.41 169.04 161.67 170.56 162.28 170.84 165.36 172.27 165.97 172.55 169.55 174.22 170.16 174.5 173.53 176.07 174.14 176.35 174.39 175.73 173.78 175.45 170.44 173.9 169.84 173.62 169.83 173.62 166.24 171.94 165.63 171.66 162.55 170.24 161.94 169.95 158.69 168.44 158.68 168.44 158.08 168.15 154.48 166.49 153.88 166.21 150.25 164.52 149.64 164.24 147.6 163.29 147 163.01 144.98 162.08 144.37 161.8 144.13 162.41"/><path class="cls-3" d="M143,165.28l.61.26c.69.29,1.39.59,2.08.9l.61.26,2,.87.6.26,3.63,1.63a6.65,6.65,0,0,1,.61.27c1.19.53,2.36,1.07,3.54,1.63.21.08.41.18.61.27,1.08.5,2.17,1,3.25,1.52l.61.29c1,.48,2.08,1,3.1,1.47.21.09.41.19.6.29,1.17.55,2.34,1.12,3.5,1.7l.6.29c1.17.57,2.35,1.15,3.52,1.74l.6.3.24-.62-.59-.31-3.49-1.72-.59-.29-3.52-1.7c-.2-.1-.39-.2-.6-.29-1-.5-2.06-1-3.09-1.47-.2-.1-.4-.2-.61-.28-1.08-.52-2.16-1-3.25-1.52l-.61-.28c-1.18-.56-2.36-1.1-3.56-1.63a5.46,5.46,0,0,0-.6-.27c-1.2-.56-2.42-1.1-3.64-1.63l-.6-.27h0l-2-.86c-.2-.1-.41-.18-.6-.26l-2.08-.91-.61-.26Z"/><path class="cls-3" d="M141.47,168.91l.62.25c.72.29,1.42.58,2.13.89l.62.25,1.88.79.61.27c1.21.51,2.41,1,3.62,1.57l.61.27c1.18.51,2.34,1,3.5,1.56l.61.27c1.09.49,2.17,1,3.25,1.49.2.08.4.18.61.28l3.11,1.45.6.29c1.16.53,2.3,1.08,3.44,1.64l.6.29c1.26.61,2.52,1.23,3.77,1.86.2.09.39.19.59.3l.25-.63-.59-.3c-1.24-.62-2.49-1.24-3.73-1.84l-.6-.29-3.44-1.65-.61-.28-3.11-1.46-.6-.28h0L156,174.42l-.61-.27h0c-1.16-.53-2.33-1.06-3.5-1.57l-.61-.26c-1.21-.53-2.42-1.06-3.63-1.57l-.61-.27-1.89-.8-.62-.26-2.13-.88-.61-.25Z"/><path class="cls-3" d="M139.77,173.08c.22.06.43.13.64.21.74.25,1.48.51,2.21.78.21.06.42.14.63.22l1.82.66c.2.07.42.14.62.23,1.23.45,2.46.91,3.67,1.39l.63.25c1.17.45,2.33.92,3.5,1.4.2.08.4.16.61.26h0c1.09.44,2.18.91,3.27,1.38l.61.26c1,.44,2.06.9,3.08,1.36l.61.28c1.14.52,2.29,1.05,3.43,1.59l.59.28c1.36.64,2.7,1.3,4.05,2,.2.09.4.2.59.3l.25-.63L170,185c-1.32-.66-2.65-1.31-4-1.95l-.59-.28c-1.13-.54-2.27-1.08-3.43-1.59l-.6-.28-3.11-1.38-.61-.26c-1.1-.46-2.18-.93-3.28-1.38l-.61-.25c-1.17-.48-2.34-1-3.52-1.41l-.61-.24h0c-1.22-.48-2.45-.94-3.67-1.38a6.06,6.06,0,0,0-.63-.23c-.61-.24-1.22-.46-1.84-.68l-.61-.21-2.22-.78c-.2-.08-.42-.15-.63-.22Z"/><path class="cls-3" d="M179.94,159.86h0a.33.33,0,0,1-.32-.34,9.06,9.06,0,0,1,.44-2.33c.06-.2.11-.39.16-.59a4.73,4.73,0,0,0,.1-2.67,1.8,1.8,0,0,0-1.83-1.29,2.33,2.33,0,0,0-1.14.69,16.21,16.21,0,0,0-2.65,3.75.33.33,0,0,1-.59-.29,10.49,10.49,0,0,0,.82-3.57,2.87,2.87,0,0,0-.22-1.5,1.65,1.65,0,0,0-1.06-.8,2.72,2.72,0,0,0-2.08.3,7.34,7.34,0,0,0-2.36,3.06.33.33,0,0,1-.63-.16,9,9,0,0,1,.42-2.21c0-.19.11-.38.15-.57a4.54,4.54,0,0,0,.1-2.54,1.75,1.75,0,0,0-1.71-1.27,2.58,2.58,0,0,0-1,.47,12.38,12.38,0,0,0-3.59,3.86.32.32,0,0,1-.41.13.33.33,0,0,1-.2-.39,9.33,9.33,0,0,0,0-5.59,1.7,1.7,0,0,0-.74-.95c-.73-.36-1.61.29-1.87.5a11.75,11.75,0,0,0-2.68,3.78.33.33,0,0,1-.42.15.32.32,0,0,1-.19-.4,7.26,7.26,0,0,0-.05-5,1.82,1.82,0,0,0-.55-.74,1.88,1.88,0,0,0-2.3.31,6.1,6.1,0,0,0-1.4,2.43.33.33,0,1,1-.62-.25,6.8,6.8,0,0,1,1.57-2.68,2.29,2.29,0,0,1,3.9.66,6.65,6.65,0,0,1,.5,3.31,8.66,8.66,0,0,1,1.82-2.14,2.47,2.47,0,0,1,2.59-.58,2.33,2.33,0,0,1,1.06,1.3,8.58,8.58,0,0,1,.35,4.36,12.76,12.76,0,0,1,2.83-2.66,3,3,0,0,1,1.3-.59,2.38,2.38,0,0,1,2.43,1.72,5.14,5.14,0,0,1-.08,2.92c0,.19-.1.38-.16.58a1.94,1.94,0,0,1,0,.2,5.49,5.49,0,0,1,1.64-1.65,3.39,3.39,0,0,1,2.6-.36,2.28,2.28,0,0,1,1.47,1.13,3.61,3.61,0,0,1,.3,1.84,9.55,9.55,0,0,1-.15,1.31,10.61,10.61,0,0,1,1.44-1.71,2.92,2.92,0,0,1,1.48-.87,2.45,2.45,0,0,1,2.58,1.73,5.36,5.36,0,0,1-.08,3.06c-.05.2-.11.4-.17.6a9.37,9.37,0,0,0-.42,2.16A.33.33,0,0,1,179.94,159.86Z"/><path class="cls-3" d="M170.6,189.12a4.68,4.68,0,0,1-2.12-.7.34.34,0,1,1,.33-.59c.77.43,1.75.87,2.43.45a1.36,1.36,0,0,0,.49-1.46,2.78,2.78,0,0,0-1.08-1.47.33.33,0,0,1-.08-.43.31.31,0,0,1,.41-.14,3.25,3.25,0,0,0,2.38.35,1.94,1.94,0,0,0,.83-2.39,6.56,6.56,0,0,0-1.85-2.49.32.32,0,0,1,0-.45.33.33,0,0,1,.46-.05,3.74,3.74,0,0,0,2.56.88,2.39,2.39,0,0,0,2.06-1.4,2.78,2.78,0,0,0-.54-2.54,6.69,6.69,0,0,0-1.52-1.38,3.4,3.4,0,0,1-.78-.54.34.34,0,0,1-.05-.45.33.33,0,0,1,.45-.07l.71.48a3.06,3.06,0,0,0,1.29.34,2.2,2.2,0,0,0,1.83-.83,2.55,2.55,0,0,0,.06-2.61,6.17,6.17,0,0,0-2.08-2.11.33.33,0,1,1,.37-.55,6.25,6.25,0,0,0,2.25,1.08,1.9,1.9,0,0,0,2-.73,2.25,2.25,0,0,0-.19-2,6.1,6.1,0,0,0-1.57-1.93,6.36,6.36,0,0,1-1.13-.72.33.33,0,0,1,.36-.55,6.1,6.1,0,0,1,1.11.7,5.82,5.82,0,0,0,2.52.59h0a2.33,2.33,0,0,0,1.83-.68,1.61,1.61,0,0,0,0-1.71,3.53,3.53,0,0,0-1.46-1.36,7.22,7.22,0,0,0-2.74-.91.35.35,0,0,1-.29-.38.33.33,0,0,1,.37-.28,8.12,8.12,0,0,1,3,1,4.17,4.17,0,0,1,1.72,1.62,2.28,2.28,0,0,1-.09,2.43,2.82,2.82,0,0,1-2.38.95,6.63,6.63,0,0,1-1.41-.17,7.2,7.2,0,0,1,.71,1.11,2.8,2.8,0,0,1,.18,2.61,2.55,2.55,0,0,1-2.66,1.06l-.26-.06a5.79,5.79,0,0,1,.42.67,3.15,3.15,0,0,1-.12,3.32,2.93,2.93,0,0,1-2.32,1.09h-.1c.17.18.33.36.49.56a3.4,3.4,0,0,1,.63,3.18,3.06,3.06,0,0,1-2.63,1.82,3.7,3.7,0,0,1-1.31-.13,4.68,4.68,0,0,1,.75,1.37,2.37,2.37,0,0,1-2.82,3.3,2.81,2.81,0,0,1,.36.82,2,2,0,0,1-.78,2.19A1.8,1.8,0,0,1,170.6,189.12Z"/><path class="cls-3" d="M166.47,191.09a1.45,1.45,0,0,1-.67-.15,2.06,2.06,0,0,1-1.05-1.77,2.16,2.16,0,0,1,0-.36,2.25,2.25,0,0,1-2,.79,2.28,2.28,0,0,1-1.68-1.84A3.22,3.22,0,0,1,161,187a4.93,4.93,0,0,1-.63.73,2.56,2.56,0,0,1-2.59.65,2.62,2.62,0,0,1-1.5-2.32,4.38,4.38,0,0,1,0-.81,4,4,0,0,1-.78.66,2.76,2.76,0,0,1-2.92.1,3,3,0,0,1-1.2-2.42,5.74,5.74,0,0,1,.05-.93,2.74,2.74,0,0,1-1.5,1.24,2.39,2.39,0,0,1-2.72-1.8,4.88,4.88,0,0,1-.17-1.7,4.43,4.43,0,0,1-1,1,2.43,2.43,0,0,1-3,0,2.52,2.52,0,0,1-.68-2.11l-.23.28c-.79,1-1.61,1.39-2.37,1.17-1-.31-1.33-1.51-1.28-2.54a7.64,7.64,0,0,1,.45-2.32.33.33,0,0,1,.43-.21.35.35,0,0,1,.21.44,7.25,7.25,0,0,0-.41,2.12c0,.79.19,1.67.79,1.85s1.31-.51,1.65-.93a13.63,13.63,0,0,0,1.12-1.61.34.34,0,0,1,.62.27c-.29,1-.59,2.4.16,3.1a1.8,1.8,0,0,0,2.17-.06,6.36,6.36,0,0,0,1.65-2.12.35.35,0,0,1,.41-.15.34.34,0,0,1,.22.38,6.45,6.45,0,0,0-.08,3c.26.82,1.08,1.56,1.89,1.34.59-.16,1-.74,1.38-1.35a6.78,6.78,0,0,1,.75-1,.35.35,0,0,1,.42-.07.36.36,0,0,1,.16.39,8,8,0,0,0-.4,2.36,2.34,2.34,0,0,0,.9,1.88,2,2,0,0,0,2.17-.11,4.6,4.6,0,0,0,1.59-2,.33.33,0,0,1,.43-.16.33.33,0,0,1,.2.41,6.65,6.65,0,0,0-.4,2.4,2,2,0,0,0,1.07,1.73,1.89,1.89,0,0,0,1.87-.51,6.72,6.72,0,0,0,1.3-1.95.34.34,0,0,1,.64.21,5.68,5.68,0,0,0-.09,2.13,1.64,1.64,0,0,0,1.12,1.31c.7.12,1.42-.45,2.21-1.73a.34.34,0,0,1,.43-.14.36.36,0,0,1,.19.41,4.86,4.86,0,0,0-.3,1.66,1.16,1.16,0,0,0,2.16.71,5.14,5.14,0,0,0,.82-1.85.34.34,0,1,1,.65.19,5.58,5.58,0,0,1-.95,2.1A2.25,2.25,0,0,1,166.47,191.09Z"/><path class="cls-3" d="M139.24,175.41a.47.47,0,0,1-.16,0,8.22,8.22,0,0,1-2.64-2.19,3.92,3.92,0,0,1-.86-1.72,2.16,2.16,0,0,1,.55-2,2.52,2.52,0,0,1,2.34-.45,8.7,8.7,0,0,1-1.87-2.35,2,2,0,0,1-.11-2.21,2.19,2.19,0,0,1,2-.53,14.52,14.52,0,0,1,1.86.35,5.42,5.42,0,0,1-1.47-1.88,2.36,2.36,0,0,1,.12-2.35c.56-.74,1.64-1,3.06-.61l.5.14a10.91,10.91,0,0,1-1.26-1.46,3.72,3.72,0,0,1-.75-1.72,1.84,1.84,0,0,1,.84-1.81,2.42,2.42,0,0,1,1.85,0c.33.09.65.19,1,.31A15.94,15.94,0,0,1,142.6,153a3,3,0,0,1-.74-2.08,2.25,2.25,0,0,1,1.89-1.81,3.7,3.7,0,0,1,1.95.23l-.37-.3a3.8,3.8,0,0,1-1.5-2,2.47,2.47,0,0,1,1.52-2.68,3.83,3.83,0,0,1,3.06.16,11.07,11.07,0,0,1,2.43,1.71.33.33,0,0,1,0,.48.34.34,0,0,1-.48,0,10.08,10.08,0,0,0-2.26-1.6,3.15,3.15,0,0,0-2.51-.17,1.82,1.82,0,0,0-1.13,1.91,3.19,3.19,0,0,0,1.27,1.59l2.67,2.19a.33.33,0,0,1,.08.43.34.34,0,0,1-.43.14c-.42-.18-.83-.4-1.23-.62s-.59-.32-.89-.46a3.42,3.42,0,0,0-2.1-.41,1.6,1.6,0,0,0-1.33,1.23,2.51,2.51,0,0,0,.62,1.59,15.59,15.59,0,0,0,3.49,3.53.34.34,0,0,1,.08.47.33.33,0,0,1-.46.1,12.34,12.34,0,0,0-3.19-1.42,1.91,1.91,0,0,0-1.33,0,1.18,1.18,0,0,0-.49,1.15,3.26,3.26,0,0,0,.63,1.4,9.38,9.38,0,0,0,3.23,2.84.34.34,0,0,1,.14.46.33.33,0,0,1-.45.14,14.13,14.13,0,0,0-2.89-1.07c-.65-.16-1.83-.33-2.35.36a1.76,1.76,0,0,0,0,1.67c.55,1.28,1.8,2.09,3.25,2.94a.36.36,0,0,1,.14.45.35.35,0,0,1-.44.16,16.23,16.23,0,0,0-4.06-1.08c-.72-.09-1.18,0-1.39.28s0,1.09.17,1.46a8.11,8.11,0,0,0,3.9,3.57.34.34,0,0,1,.19.41.35.35,0,0,1-.38.24,6.59,6.59,0,0,1-1.54-.49c-.27-.11-.54-.22-.81-.31a2.07,2.07,0,0,0-1.95.2,1.49,1.49,0,0,0-.36,1.34,3.21,3.21,0,0,0,.73,1.42,7.31,7.31,0,0,0,2.42,2,.35.35,0,0,1-.16.65Z"/><path class="cls-3" d="M169.37,194a2.38,2.38,0,1,0,2.5-2.26A2.39,2.39,0,0,0,169.37,194Z"/><path class="cls-3" d="M174.27,202.18a1.87,1.87,0,1,0,2-1.78A1.87,1.87,0,0,0,174.27,202.18Z"/><path class="cls-3" d="M171,193.41a.26.26,0,0,1-.23-.15l-1.92-4.43a.24.24,0,0,1,.13-.33.25.25,0,0,1,.33.13l1.92,4.43a.25.25,0,0,1-.13.33Z"/><path class="cls-3" d="M176.37,202.55a.25.25,0,0,1-.22-.13c-1.6-2.84-3.18-5.75-4.71-8.67a.25.25,0,0,1,.11-.33.24.24,0,0,1,.33.1c1.53,2.91,3.11,5.82,4.7,8.65a.24.24,0,0,1-.09.34A.19.19,0,0,1,176.37,202.55Z"/><path class="cls-3" d="M190.48,212.52v.27H181a70.8,70.8,0,0,1-4-8.85c-.23-.6-.46-1.2-.67-1.81l-.19-.54c.54.55,1.09,1.09,1.66,1.62A61.57,61.57,0,0,0,190.48,212.52Z"/><path class="cls-4" d="M151.37,145.84c-.48-3.63-3-22-7.12-28.8a6.66,6.66,0,0,0-1.69-2,2.28,2.28,0,0,0-1.83-.48,1.76,1.76,0,0,0-1.33,1c-.71,1.52-.13,4.61,1.09,8.26,2.77,8.36,8.83,19.7,10.21,22.24a.41.41,0,0,1,.05.09l.2.36,0,0a.26.26,0,0,0,.22.13h.08a.24.24,0,0,0,.13-.11.19.19,0,0,0,0-.16C151.43,146.35,151.4,146.15,151.37,145.84Zm-10.53-22.5c-1.11-3.37-1.63-6.17-1-7.54a1.29,1.29,0,0,1,1-.77,1.53,1.53,0,0,1,.3,0,2,2,0,0,1,1.15.42,6.65,6.65,0,0,1,1.74,2.16c3.63,6.42,6.09,22.76,6.76,27.57C148.88,141.61,143.34,131,140.84,123.34Z"/><path class="cls-5" d="M160.26,50s-17.33-17.82-12-20.63S160.26,50,160.26,50Z"/><path class="cls-5" d="M169.57,41.32c-2.77,4.69-5.8,8.79-5.8,8.79a118.93,118.93,0,0,1,2.64-12.53C167.49,38.8,168.55,40.05,169.57,41.32Z"/><path class="cls-5" d="M176.6,51.32c-5.65,1.21-11.29,1.76-11.29,1.76s4.2-2.8,9-5.35C175.09,48.91,175.87,50.1,176.6,51.32Z"/><path class="cls-5" d="M185.28,69.32h0c-4.79,1.83-20.35-11.55-20.35-11.55S177.09,60.5,183.16,64h0Q184.31,66.6,185.28,69.32Z"/><path class="cls-5" d="M159.81,58s-12.15,21.67-16.34,17.41S159.81,58,159.81,58Z"/><path class="cls-5" d="M159.19,53.88s-24.23,5.53-23.88-.44S159.19,53.88,159.19,53.88Z"/><path class="cls-5" d="M161.58,59s9.06,23.15,3.11,23.69S161.58,59,161.58,59Z"/><path class="cls-6" d="M45.88,33.16s-2.47-2.54-5.26-5.85c.86-.69,1.73-1.37,2.61-2C44.83,29.52,45.88,33.16,45.88,33.16Z"/><path class="cls-6" d="M59.34,15.62c-1.75,6.56-10,17.64-10,17.64A110.52,110.52,0,0,1,52.48,19.2C54.71,17.91,57,16.71,59.34,15.62Z"/><path class="cls-6" d="M50.92,36.23s20.7-13.76,22.48-8.06S50.92,36.23,50.92,36.23Z"/><path class="cls-6" d="M50.54,40.93S74.79,46.36,71.91,51.6,50.54,40.93,50.54,40.93Z"/><path class="cls-6" d="M45.43,41.16S33.27,62.83,29.08,58.57,45.43,41.16,45.43,41.16Z"/><path class="cls-6" d="M44.81,37S35.3,39.2,28.28,39.35l.42-.5c1.28-1.49,2.61-2.94,4-4.33A112.16,112.16,0,0,1,44.81,37Z"/><path class="cls-6" d="M47.2,42.19s9.06,23.15,3.11,23.69S47.2,42.19,47.2,42.19Z"/><path class="cls-3" d="M97,6.81a202.46,202.46,0,0,0-2.33,28.34v.25h-.75V35.2A204.39,204.39,0,0,1,96.19,6.83C96.45,6.81,96.7,6.81,97,6.81Z"/><rect class="cls-3" x="94.6" y="142.46" width="19.47" height="8.43" transform="translate(-17.15 13.86) rotate(-7.02)"/><path class="cls-7" d="M113.48,141.3l.36,2.86a37.25,37.25,0,0,1-19,5.33l-.72-5.81Z"/><polygon class="cls-3" points="84.14 68.84 83.31 62.13 104.28 59.55 105.16 66.69 84.14 68.84"/><path class="cls-6" d="M146.72,97.94c2.53,15.71-6.41,31-21.49,39.93-.37.22-.75.44-1.14.64a56.14,56.14,0,0,1-18.47,6.37c-.12,0-.22,0-.34,0-.28.05-.57.1-.84.12a55.93,55.93,0,0,1-16.86-.12c-.41-.06-.79-.13-1.18-.22-17.87-3.27-31.95-15.25-34.58-31.44C48.88,95,61.47,77.17,81.21,69.5c.42-.18.85-.33,1.28-.47a55.34,55.34,0,0,1,10.44-2.71c.59-.11,1.19-.18,1.78-.26.29,0,.56-.07.85-.08a55.69,55.69,0,0,1,16.72.53c.54.09,1.11.21,1.64.33C131,70.55,144.19,82.28,146.72,97.94Z"/><path class="cls-7" d="M87.58,144.92c-.41-.06-.79-.13-1.18-.22-12-17.1-16.58-39.42-11.39-59.81a58.59,58.59,0,0,1,6.2-15.39c.42-.18.85-.33,1.28-.47A56.75,56.75,0,0,0,75.84,85.1C70.64,105.52,75.32,127.91,87.58,144.92Z"/><path class="cls-7" d="M95.56,66l9.72,78.94c-.28.05-.57.1-.84.12l-9.73-79C95,66,95.27,66,95.56,66Z"/><path class="cls-7" d="M128.58,114.51c0,6.65-.38,15.38-3.35,23.36-.37.22-.75.44-1.14.64,3.25-8.12,3.68-17.18,3.64-24-.08-13.48-1.83-24.08-5.55-33.35-1.64-4.1-4.77-10.28-9.9-14.65.54.09,1.11.21,1.64.33a40.69,40.69,0,0,1,9.07,14C126.73,90.21,128.5,100.9,128.58,114.51Z"/><path class="cls-3" d="M99.1,39.16a5.45,5.45,0,0,0-3.94-3.95,4.78,4.78,0,0,0-.53-.06H94.4a2.29,2.29,0,0,0-.52.05,1.91,1.91,0,0,0-.33.06,5.83,5.83,0,0,0-3.7,2.65,10.83,10.83,0,0,0-1.35,4.82c0,.34,0,.67-.06,1a36.81,36.81,0,0,0,1,10.06l.1.38c.81,3.47,1.56,5.72,2.34,6.93h0a2,2,0,0,0,1.42,1.11h.07c.62,0,1.19-.57,1.72-1.51h0c2.42-4.24,4.08-15.84,4.1-16A13.3,13.3,0,0,0,99.1,39.16Zm-.75,5.42c-.72,5.08-2.65,14-4.26,16.22h0c-.25.34-.49.53-.71.53a.88.88,0,0,1-.55-.38h0c-.56-.66-1.42-2.42-2.48-7l-.09-.4a35.67,35.67,0,0,1-1-9.8,11,11,0,0,1,1.3-5.39,5,5,0,0,1,2.94-2.25,2.32,2.32,0,0,1,.83-.11.93.93,0,0,1,.29,0L95,36a4.55,4.55,0,0,1,3.28,3.35A12.47,12.47,0,0,1,98.35,44.58Z"/><rect class="cls-3" x="105.04" y="148.3" width="0.75" height="14.32" transform="translate(-15.21 11.48) rotate(-5.82)"/><path class="cls-3" d="M111.62,166.28A4.85,4.85,0,1,1,107.2,161,4.85,4.85,0,0,1,111.62,166.28Z"/><path class="cls-3" d="M106.29,168.57a101.7,101.7,0,0,1-8.93,22,17.64,17.64,0,0,1-4.66,6,62.81,62.81,0,0,0,7.9,1.71A126.25,126.25,0,0,0,106.29,168.57Z"/><path class="cls-3" d="M117.71,198.5c-3.09,1.16-6.49,2-9.58,3.17q-.27-16.53-1.07-33C110.39,178.6,114.06,188.63,117.71,198.5Z"/><path class="cls-3" d="M126.53,191.9a89.35,89.35,0,0,1-18.25-23.3A121.87,121.87,0,0,0,128,186.12C127.5,187.9,127.31,190.24,126.53,191.9Z"/><path class="cls-7" d="M190.47,97.88c0-.27,0-.54,0-.81s0-.39,0-.59a.06.06,0,0,0,0,0,3.38,3.38,0,0,0,0-.45.14.14,0,0,0,0-.09v-.08c0-.24,0-.48,0-.72s0-.21,0-.31a1.62,1.62,0,0,0,0-.22c0-.18,0-.35,0-.53a4.89,4.89,0,0,0,0-.54,18.52,18.52,0,0,0-3.1-1.6c-.62-.24-1.24-.45-1.9-.64l-.62-.17a19,19,0,0,0-2.08-.39h0a18.7,18.7,0,0,0-19.5,11.08c-.1.23-.19.46-.28.69s-.22.57-.32.85-.17.55-.25.82a14.11,14.11,0,0,0-.47,2.1l-.09.65a.41.41,0,0,0,0,.11c0,.22,0,.44-.06.67s0,.42,0,.64A18.67,18.67,0,0,0,174.52,127a6.29,6.29,0,0,0,.62.17,18.6,18.6,0,0,0,15.34-2.35V98.79C190.48,98.49,190.48,98.18,190.47,97.88Zm-3.33,13.58-.1.05h0l-10,5.58-5.59-10-.05-.09.1-.06,9.79-5.47.21-.11.11.2,5.47,9.8Z"/><path class="cls-3" d="M190.47,97.88c0-.27,0-.54,0-.81s0-.39,0-.59a.06.06,0,0,0,0,0,3.38,3.38,0,0,0,0-.45.14.14,0,0,0,0-.09v-.08c0-.24,0-.48,0-.72s0-.21,0-.31a1.62,1.62,0,0,0,0-.22c0-.18,0-.35,0-.53a17.89,17.89,0,0,0-3.17-2,20.67,20.67,0,0,0-2.48-1l-.62-.18a16.55,16.55,0,0,0-2.36-.5h0a18.68,18.68,0,0,0-7.82,36.46l.63.17a18.67,18.67,0,0,0,16-3.43V98.79C190.48,98.49,190.48,98.18,190.47,97.88Zm-19,9.22-.05-.09.1-.06,9.79-5.47.21-.11.11.2,5.47,9.8,0,.09-.1.05h0l-10,5.58Z"/><path class="cls-7" d="M186,93.06A17.62,17.62,0,0,1,190.43,96a.14.14,0,0,0,0-.09A16.87,16.87,0,0,0,186,93.06Zm1.37,30.77a17.19,17.19,0,0,1-24.87-19.63A17.27,17.27,0,0,1,181.3,91.75a17.39,17.39,0,0,0-18.2,10c-.1.23-.19.46-.28.69s-.22.57-.32.85-.17.55-.25.82a14.11,14.11,0,0,0-.47,2.1l-.09.65a.41.41,0,0,0,0,.11c0,.22,0,.44-.06.67s0,.42,0,.64a17.08,17.08,0,0,0,2.17,9.08,17.28,17.28,0,0,0,23.74,6.73,17.07,17.07,0,0,0,3-2.13v-.41A16.27,16.27,0,0,1,187.33,123.83Z"/><path class="cls-7" d="M187.24,111.41l-5.52-10.16h0a.23.23,0,0,0-.31-.09l-10,5.75a.11.11,0,0,0-.05.15l5.74,10-5.49-10-.1,0,0-.15.05.1,9.86-5.37-.12-.2.32.09-.2.11,5.57,9.74.1,0-.05.14,0-.09-9.94,5.68,10.14-5.54A.11.11,0,0,0,187.24,111.41Z"/><path class="cls-7" d="M31,81.32a18.83,18.83,0,0,0-2-.13h-.64a20.7,20.7,0,0,0-2.11.17h0A18.7,18.7,0,0,0,10.29,97.14c0,.24-.07.49-.1.73l-.09.91c0,.28,0,.57,0,.85a15.55,15.55,0,0,0,.09,2.16c0,.21.05.42.08.64a.43.43,0,0,0,0,.11c0,.23.07.44.11.67s.08.41.13.62a18.69,18.69,0,0,0,17.37,14.72c.21,0,.43,0,.64,0A18.69,18.69,0,0,0,31,81.32Zm5,18.9-.08.08-8.19,8-8-8.2-.07-.07.08-.09,8-7.83.17-.16.16.17,7.83,8Z"/><path class="cls-3" d="M31,81.5a19.37,19.37,0,0,0-2.65-.31h-.64a17.5,17.5,0,0,0-2.42.13h0a18.68,18.68,0,0,0,1.94,37.24h.65A18.7,18.7,0,0,0,31,81.5ZM19.74,100.09l-.07-.07.08-.09,8-7.83.17-.16.16.17,7.83,8,.07.07-.08.08-8.19,8Z"/><path class="cls-7" d="M39.89,87.76a17.3,17.3,0,0,0-9.8-5,17.51,17.51,0,0,1,9.73,5.06,17.17,17.17,0,0,1-.41,24.29,17.17,17.17,0,0,1-24-24.61,17.43,17.43,0,0,1,9.8-4.79,17.31,17.31,0,0,0-15,14.42c0,.24-.07.49-.1.73l-.09.91c0,.28,0,.57,0,.85a15.55,15.55,0,0,0,.09,2.16c0,.21.05.42.08.64a.43.43,0,0,0,0,.11c0,.23.07.44.11.67s.08.41.13.62A17.22,17.22,0,0,0,15,112a17.39,17.39,0,0,0,29.89-12A17.28,17.28,0,0,0,39.89,87.76Z"/><path class="cls-7" d="M36.09,100.15l-8-8.37h0a.23.23,0,0,0-.32,0l-8.19,8.16a.11.11,0,0,0,0,.16l8.16,8.2L19.82,100l-.08.07v-.16l.07.09L28,92.27l-.17-.17h.33l-.16.16,7.91,8,.08-.07v.15l-.07-.08-8.12,8.07,8.34-8A.09.09,0,0,0,36.09,100.15Z"/><path class="cls-4" d="M122.65,33.8l3.64,1a.22.22,0,0,1,0,.42l-3.64,1a2.71,2.71,0,0,0-1.91,1.91l-.89,3.32a.31.31,0,0,1-.6,0l-.89-3.32a2.72,2.72,0,0,0-1.92-1.91l-3.32-.89a.31.31,0,0,1,0-.6l3.32-.89a2.72,2.72,0,0,0,1.92-1.91l1-3.65a.22.22,0,0,1,.42,0l1,3.65A2.71,2.71,0,0,0,122.65,33.8Z"/><path class="cls-4" d="M180.69,139.84l3.64,1a.22.22,0,0,1,0,.42l-3.64,1a2.71,2.71,0,0,0-1.91,1.91l-.89,3.33a.31.31,0,0,1-.6,0l-.89-3.33a2.71,2.71,0,0,0-1.91-1.91l-3.33-.89a.31.31,0,0,1,0-.6l3.33-.89a2.71,2.71,0,0,0,1.91-1.91l1-3.64a.22.22,0,0,1,.42,0l1,3.64A2.71,2.71,0,0,0,180.69,139.84Z"/><path class="cls-4" d="M148.52,198.22l3.64,1a.22.22,0,0,1,0,.43l-3.64,1a2.69,2.69,0,0,0-1.91,1.91l-.89,3.32a.31.31,0,0,1-.6,0l-.89-3.32a2.69,2.69,0,0,0-1.91-1.91l-3.33-.9a.31.31,0,0,1,0-.59l3.33-.9a2.71,2.71,0,0,0,1.91-1.91l1-3.64a.22.22,0,0,1,.42,0l1,3.64A2.71,2.71,0,0,0,148.52,198.22Z"/><path class="cls-4" d="M79.42,169.29l3.64,1a.22.22,0,0,1,0,.42l-3.64,1a2.69,2.69,0,0,0-1.91,1.91l-.9,3.32a.3.3,0,0,1-.59,0l-.9-3.32a2.71,2.71,0,0,0-1.91-1.91l-3.32-.89a.31.31,0,0,1,0-.6l3.32-.89a2.72,2.72,0,0,0,1.91-1.92l1-3.64a.23.23,0,0,1,.43,0l1,3.64A2.71,2.71,0,0,0,79.42,169.29Z"/><path class="cls-4" d="M54.23,78.39l3.64,1a.23.23,0,0,1,0,.43l-3.64,1a2.71,2.71,0,0,0-1.92,1.91L51.42,86a.31.31,0,0,1-.6,0l-.89-3.32A2.71,2.71,0,0,0,48,80.78l-3.32-.9a.3.3,0,0,1,0-.59l3.32-.9a2.71,2.71,0,0,0,1.91-1.91l1-3.64a.22.22,0,0,1,.42,0l1,3.64A2.71,2.71,0,0,0,54.23,78.39Z"/></g></g></svg>