<svg xmlns="http://www.w3.org/2000/svg" xmlns:xlink="http://www.w3.org/1999/xlink" viewBox="0 0 385.89 387.93"><defs><style>.cls-1{fill:#fff;}.cls-2{fill:#3f6191;}.cls-3{fill:#d02125;}.cls-4{fill:url(#linear-gradient);}</style><linearGradient id="linear-gradient" x1="1582.12" y1="1568.42" x2="389.79" y2="243.61" gradientUnits="userSpaceOnUse"><stop offset="0" stop-opacity="0"/><stop offset="1" stop-opacity="0.3"/></linearGradient></defs><g id="图层_2" data-name="图层 2"><g id="background"><rect class="cls-1" x="48.78" y="45.54" width="3.26" height="134.4" rx="1.63" transform="translate(100.58 -0.1) rotate(48.06)"/><rect class="cls-1" x="288.72" y="267.33" width="3.26" height="134.4" rx="1.63" transform="translate(266.39 -107.78) rotate(37.85)"/><rect class="cls-1" x="110.74" y="169.24" width="3.38" height="80.97" rx="1.63" transform="translate(181.23 -18.07) rotate(45)"/><rect class="cls-1" x="176.24" y="234.74" width="3.38" height="80.97" rx="1.63" transform="translate(246.73 -45.21) rotate(45)"/></g><g id="object"><polygon class="cls-2" points="177.61 209.72 137.74 169.85 144.17 163.42 186.66 177.97 177.61 209.72"/><polygon class="cls-2" points="178.8 210.92 218.68 250.79 225.11 244.36 210.56 201.87 178.8 210.92"/><path class="cls-1" d="M168.42,220.29h0a20.12,20.12,0,0,1-1-27.4L321,15.38A52.5,52.5,0,0,1,360.18,0h0a26.54,26.54,0,0,1,25.37,24l.11,1.22a52.49,52.49,0,0,1-15.15,42L196,221.16A20.13,20.13,0,0,1,168.42,220.29Z"/><path class="cls-3" d="M170.94,49.33,158.75,37.15l23.66-23.66a8.62,8.62,0,0,1,12.18,0h0a8.61,8.61,0,0,1,0,12.19Z"/><path class="cls-3" d="M207.42,56.07,195.24,43.88l23.65-23.65a8.6,8.6,0,0,1,12.18,0h0a8.6,8.6,0,0,1,0,12.18Z"/><path class="cls-3" d="M235.76,67.76,223.58,55.58l23.65-23.66a8.63,8.63,0,0,1,12.19,0h0a8.62,8.62,0,0,1,0,12.18Z"/><polygon class="cls-1" points="305.59 53.25 133.35 22.17 117.46 38.06 257.34 102.5 305.59 53.25"/><polygon class="cls-1" points="249.15 119.79 196.43 67.06 273.7 67.06 249.15 119.79"/><path class="cls-3" d="M343.51,221.91l12.18,12.18,23.66-23.66a8.61,8.61,0,0,0,0-12.18h0a8.61,8.61,0,0,0-12.18,0Z"/><path class="cls-3" d="M336.78,185.42,349,197.61,372.62,174a8.62,8.62,0,0,0,0-12.18h0a8.6,8.6,0,0,0-12.18,0Z"/><path class="cls-3" d="M325.08,157.08l12.19,12.18,23.65-23.65a8.62,8.62,0,0,0,0-12.19h0a8.62,8.62,0,0,0-12.18,0Z"/><polygon class="cls-1" points="339.59 87.25 370.67 259.49 354.78 275.38 290.35 135.5 339.59 87.25"/><polygon class="cls-1" points="273.05 143.69 325.78 196.41 325.78 119.14 273.05 143.69"/><path class="cls-2" d="M369.54,43.39c-2.68-14.06-9.06-20.44-23.12-23.12.52-2.75.78-4.12,1.31-6.86,17.44,3.32,25.35,11.23,28.67,28.67Z"/><path class="cls-4" d="M367.17,198.25l-6.4,6.39-2.88-16L372.62,174a8.62,8.62,0,0,0,0-12.18h0a8.6,8.6,0,0,0-12.18,0L354.17,168l-2.4-13.27,9.15-9.15a8.62,8.62,0,1,0-12.18-12.19l-.69.69-7.32-40.54,29.78-26.24a52.49,52.49,0,0,0,15.15-42l-.11-1.22A26.48,26.48,0,0,0,379,9L366.43,21.61l-5.1,5.12L168.42,220.29A20.12,20.12,0,0,0,191.84,224l26.84,26.84,6.43-6.43-12.86-37.55,65.87-58.06,34,34,42.68,92.65,15.89-15.89-6.17-34.21,14.85-14.85a8.61,8.61,0,0,0-12.18-12.18Z"/></g></g></svg>